<?xml version="1.0" encoding="UTF-8" standalone="no"?>
<svg
   xmlns:dc="http://purl.org/dc/elements/1.1/"
   xmlns:cc="http://creativecommons.org/ns#"
   xmlns:rdf="http://www.w3.org/1999/02/22-rdf-syntax-ns#"
   xmlns:svg="http://www.w3.org/2000/svg"
   xmlns="http://www.w3.org/2000/svg"
   xmlns:sodipodi="http://sodipodi.sourceforge.net/DTD/sodipodi-0.dtd"
   xmlns:inkscape="http://www.inkscape.org/namespaces/inkscape"
   version="1.0"
   width="136.53334pt"
   height="136.53334pt"
   viewBox="0 0 512.000000 512.000000"
   preserveAspectRatio="xMidYMid meet"
   id="svg8"
   sodipodi:docname="sc-apps-namib-settings-manager.svg"
   inkscape:version="0.92.2 2405546, 2018-03-11">
  <defs
     id="defs12" />
  <sodipodi:namedview
     pagecolor="#ffffff"
     bordercolor="#666666"
     borderopacity="1"
     objecttolerance="10"
     gridtolerance="10"
     guidetolerance="10"
     inkscape:pageopacity="0"
     inkscape:pageshadow="2"
     inkscape:window-width="1591"
     inkscape:window-height="792"
     id="namedview10"
     showgrid="false"
     inkscape:zoom="1.2963867"
     inkscape:cx="91.022227"
     inkscape:cy="91.022227"
     inkscape:window-x="224"
     inkscape:window-y="0"
     inkscape:window-maximized="0"
     inkscape:current-layer="svg8" />
  <metadata
     id="metadata2">
Created by potrace 1.15, written by Peter Selinger 2001-2017
<rdf:RDF>
  <cc:Work
     rdf:about="">
    <dc:format>image/svg+xml</dc:format>
    <dc:type
       rdf:resource="http://purl.org/dc/dcmitype/StillImage" />
  </cc:Work>
</rdf:RDF>
</metadata>
  <g
     transform="matrix(1.2729495,0,0,1.390778,-104.25715,-48.570655)"
     id="g3715">
    <path
       inkscape:connector-curvature="0"
       id="path3729"
       d="m 89.288136,401.08645 c 0,-1.51572 11.211064,-22.77212 33.532344,-63.57799 4.04499,-7.3947 15.49449,-28.41123 25.44335,-46.70339 9.94885,-18.29216 18.57199,-33.89533 19.16254,-34.67372 0.59054,-0.77839 8.22335,-14.78941 16.96179,-31.1356 8.73844,-16.34618 16.37144,-30.3572 16.96223,-31.13559 0.59077,-0.77839 6.27961,-10.96822 12.64187,-22.64407 6.36226,-11.67584 15.24576,-27.97726 19.74112,-36.22537 25.08635,-46.028478 46.40133,-84.337628 50.08802,-90.022537 l 4.19746,-6.472506 2.17235,3.381396 c 4.01152,6.244237 13.53646,23.134642 16.77155,29.740706 1.76304,3.600164 8.48266,16.019021 14.93245,27.597456 6.4498,11.578435 17.22351,31.241535 23.94158,43.695775 6.71807,12.45424 16.02833,29.64958 20.6895,38.21186 4.66116,8.56229 12.78093,23.5286 18.04395,33.25848 5.26301,9.72987 17.73234,32.65699 27.70961,50.94915 49.03177,89.89389 68.52258,127.01722 69.47505,132.32627 0.44162,2.46155 -0.54934,2.95062 -7.60236,3.75198 -4.46059,0.50681 -21.18781,0.98446 -37.17162,1.06144 l -29.06143,0.13997 -11.3485,-10.5443 c -29.66584,-27.56362 -74.06838,-49.71048 -126.45431,-63.07219 -16.54518,-4.22006 -18.36333,-4.94553 -16.61044,-6.6279 1.44859,-1.39032 81.9613,-1.37809 94.93868,0.0144 9.77514,1.0489 10.69054,0.9277 10.68905,-1.41525 -10e-4,-2.1777 -15.25588,-30.72579 -33.13098,-62.00307 -2.66912,-4.67034 -6.67556,-11.67584 -8.90319,-15.56779 -19.97377,-34.89668 -28.32037,-47.8293 -30.16315,-46.73623 -1.98167,1.17549 -23.34975,36.77843 -53.10738,88.4862 -8.28728,14.40021 -18.59213,32.23241 -22.89968,39.62711 -23.74439,40.76166 -42.01434,72.82893 -42.01434,73.7433 0,1.48385 -13.95556,2.46016 -49.02966,3.43004 -23.361098,0.64597 -30.597454,0.44304 -30.597454,-0.85806 z"
       style="fill:#d5e8fd;stroke-width:1.44461071" />
    <path
       inkscape:connector-curvature="0"
       id="path3727"
       d="m 89.288136,400.8127 c 0,-0.21022 5.186727,-9.92241 11.526064,-21.58263 6.33933,-11.66024 16.71331,-30.75339 23.05329,-42.42923 6.33999,-11.67585 14.01775,-25.68687 17.0617,-31.1356 6.3605,-11.38542 13.65168,-24.74277 39.39874,-72.17796 10.13994,-18.68136 20.5947,-37.78729 23.23279,-42.45763 5.57907,-9.87687 9.58554,-17.14972 42.49015,-77.13135 35.47542,-64.667919 40.002,-72.620536 41.63198,-73.142008 0.80753,-0.25835 9.37112,14.023103 19.0302,31.736563 9.65907,17.713466 23.64965,43.351415 31.09017,56.973245 7.44052,13.62182 19.02956,34.95677 25.75339,47.41101 12.47775,23.11189 53.7825,99.0671 78.11656,143.6483 20.99352,38.46119 38.24663,72.53083 38.70153,76.42373 l 0.41344,3.53813 -36.6378,0.37884 -36.63781,0.37883 -12.1354,-11.02504 c -29.06744,-26.40785 -74.29575,-48.66425 -125.98363,-61.99531 -8.22405,-2.12109 -14.95282,-4.33312 -14.95282,-4.91561 0,-2.19835 57.82138,-3.20067 81.56293,-1.41388 12.82445,0.96516 23.7476,1.34173 24.27367,0.83681 2.02463,-1.94318 -67.21022,-124.66199 -71.90088,-127.44435 -2.2607,-1.34098 -12.66514,15.99653 -87.55884,145.90443 l -33.53627,58.17079 -14.29743,0.90874 c -13.90698,0.88392 -63.695724,1.30693 -63.695724,0.54118 z"
       style="fill:#b4c9f5;stroke-width:1.44461071" />
    <path
       inkscape:connector-curvature="0"
       id="path3725"
       d="m 90.762712,400.13151 c 0,-0.82829 10.517328,-20.8299 23.371848,-44.448 28.50028,-52.36466 82.81373,-151.71453 100.84627,-184.46742 7.28539,-13.23262 17.24663,-31.38326 22.13607,-40.33474 4.88944,-8.95148 11.37234,-20.73347 14.40643,-26.1822 3.03409,-5.448732 11.65589,-21.05191 19.15957,-34.673731 18.43234,-33.46116 16.46028,-31.429108 21.72108,-22.381958 5.45689,9.38435 14.62625,25.972973 28.01723,50.687042 28.95256,53.434157 64.911,119.612907 71.13092,130.911017 54.00651,98.09959 91.00481,168.60312 89.32596,170.21855 -0.58715,0.56495 -17.27548,1.22746 -37.08516,1.47222 L 407.77532,401.37731 396.358,390.5644 C 369.37218,365.00713 322.94236,341.86394 271.66773,328.41183 l -17.75609,-4.65838 6.74155,-0.97028 c 10.64952,-1.53275 76.01405,-1.20086 87.42308,0.44389 13.18442,1.90069 12.5339,1.94298 12.5339,-0.8147 0,-5.73559 -69.20778,-127.84457 -72.45854,-127.84457 -2.77402,0 -20.71486,30.0109 -92.64294,154.97033 -14.78565,25.68687 -27.6473,47.47291 -28.58144,48.41342 -2.2792,2.29473 -76.164538,4.40947 -76.164538,2.17997 z"
       style="fill:#93aadf;stroke-width:1.44461071" />
    <path
       inkscape:connector-curvature="0"
       id="path3723"
       d="m 90.761345,399.95565 c 7.52e-4,-0.29239 4.568954,-8.89006 10.151555,-19.10593 5.58261,-10.21587 14.29488,-26.21668 19.36061,-35.55736 5.06574,-9.34068 11.36258,-20.80424 13.99299,-25.47457 2.63042,-4.67034 9.94938,-18.0445 16.26437,-29.72034 6.31499,-11.67585 18.11202,-33.32924 26.21562,-48.11865 8.10361,-14.7894 20.84084,-38.03495 28.30495,-51.65677 49.2819,-89.93829 80.58425,-146.460015 81.76679,-147.643851 1.86655,-1.868613 6.99474,7.120047 57.58835,100.940461 11.54325,21.40572 22.80279,42.10381 25.02122,45.99576 2.21841,3.89195 11.52632,21.08729 20.68422,38.21186 9.15788,17.12458 17.12145,31.77246 17.6968,32.55085 0.57534,0.77839 7.869,14.15254 16.20813,29.72034 8.33913,15.56779 15.65558,28.94195 16.25877,29.72034 2.49235,3.21625 38.16945,72.59912 39.03719,75.9174 l 0.94264,3.60464 -14.47947,0.92021 c -7.96371,0.50612 -24.12603,0.92351 -35.91625,0.92754 l -21.43679,0.007 -7.31745,-7.22331 c -21.24636,-20.97305 -51.19875,-38.92824 -87.93575,-52.71378 -16.30001,-6.11656 -49.09646,-16.24164 -54.12363,-16.70931 -1.31652,-0.12242 2.25125,-0.68024 7.92837,-1.23947 16.16379,-1.59223 57.29113,-1.5108 75.76454,0.15002 10.51138,0.94501 17.30102,1.01007 18.172,0.17413 1.68328,-1.61557 -5.62451,-15.88132 -30.9537,-60.42556 -22.45361,-39.48721 -38.17323,-65.86269 -40.77247,-68.41091 -1.60308,-1.57162 -3.06878,-0.12639 -8.61198,8.49152 -6.56556,10.20742 -34.49312,57.10371 -42.58648,71.51173 -2.26973,4.04063 -15.63115,27.28618 -29.69206,51.65678 -14.06091,24.37061 -29.10773,50.49535 -33.43737,58.055 -7.69691,13.43897 -8.00645,13.76174 -13.91118,14.50591 -7.0167,0.8843 -70.186568,1.72856 -70.184535,0.938 z"
       style="fill:#6591e7;stroke-width:1.44461071" />
    <path
       inkscape:connector-curvature="0"
       id="path3721"
       d="m 90.762712,400.08296 c 0,-0.38814 4.232027,-8.41675 9.404498,-17.84137 5.17248,-9.42462 14.57899,-26.68864 20.90336,-38.36448 14.31697,-26.43156 16.10027,-29.26128 17.61181,-27.94619 0.6678,0.581 0.73464,0.25685 0.14855,-0.72033 -1.33172,-2.22032 21.35181,-44.31794 23.26758,-43.18157 0.75576,0.4483 0.92428,0.11648 0.3745,-0.73724 -0.54978,-0.85378 5.91174,-14.16712 14.35893,-29.5852 23.7458,-43.34151 26.88886,-48.63501 28.19988,-47.49377 0.67137,0.58443 0.73262,0.24988 0.1361,-0.74344 -0.63535,-1.05802 2.09788,-7.50597 6.59901,-15.5678 4.22596,-7.56896 11.34638,-20.44882 15.82316,-28.62192 30.17586,-55.090931 58.23697,-105.609443 59.19588,-106.570544 1.45741,-1.460722 3.5612,1.712694 14.82543,22.362923 5.09512,9.340678 10.5087,18.981057 12.03017,21.423071 2.72031,4.366158 2.36355,9.828487 -0.52982,8.112237 -0.92964,-0.55144 -0.8023,-1.276913 0.34343,-1.956532 1.7876,-1.060351 0.82923,-4.227082 -1.27928,-4.227082 -1.73418,0 -1.7069,6.072219 0.0364,8.088178 1.29688,1.499787 1.94501,1.396757 3.4238,-0.54425 1.59314,-2.091095 2.50417,-1.093652 7.19529,7.877669 2.95416,5.64956 4.92945,10.95792 4.38953,11.79637 -0.5408,0.83984 -0.29938,1.11975 0.53757,0.6233 1.96172,-1.16364 21.58556,35.29167 20.17589,37.48082 -0.61336,0.9525 -0.40645,1.24984 0.49686,0.71403 2.27498,-1.34945 3.76505,3.56667 1.53822,5.075 -1.44416,0.97821 -1.36857,1.14334 0.3187,0.69626 2.57756,-0.68297 3.55734,0.76979 16.47627,24.42991 29.58899,54.19024 38.17532,70.88973 37.21547,72.38029 -0.60854,0.94505 -0.42525,1.27217 0.42894,0.76549 1.94242,-1.15218 9.7906,12.67157 8.41066,14.81452 -0.58014,0.90092 -0.42648,1.26535 0.34147,0.80982 1.86829,-1.10821 26.0649,43.81484 24.72252,45.89948 -0.63787,0.99058 -0.40405,1.24838 0.59488,0.65586 0.98883,-0.58655 2.8891,1.36263 4.76016,4.88267 1.71287,3.22242 2.56777,5.53476 1.89977,5.13852 -0.66801,-0.39625 -1.21455,0.81091 -1.21455,2.68256 0,3.86064 2.16999,4.73856 2.28952,0.92629 0.0428,-1.36218 5.27979,7.39471 11.63797,19.45975 6.35817,12.06504 11.26075,22.41409 10.89465,22.99788 -0.36613,0.58379 0.0282,1.06144 0.87613,1.06144 2.04019,0 6.25322,9.79179 5.03021,11.69105 -0.53176,0.82578 -0.25322,1.0671 0.62824,0.54425 1.62714,-0.96518 5.73475,8.53971 4.28982,9.92651 -0.42597,0.40885 -16.58342,1.07181 -35.90544,1.47328 l -35.13093,0.72991 -8.84745,-8.84202 c -4.86611,-4.86312 -7.91549,-8.33625 -6.7764,-7.71807 1.39645,0.75786 1.72349,0.58422 1.00403,-0.53305 -0.58685,-0.91135 -1.56321,-1.36268 -2.16969,-1.00293 -0.60648,0.35974 -4.70788,-2.03616 -9.11421,-5.32423 -10.8856,-8.12297 -29.41626,-19.32855 -42.01738,-25.40813 -10.79253,-5.20698 -43.83143,-17.9942 -46.49243,-17.9942 -0.83314,0 -1.04134,-0.73526 -0.46265,-1.63392 0.63933,-0.99283 0.4058,-1.25052 -0.59519,-0.65678 -2.03192,1.20527 -24.05463,-4.77866 -23.09149,-6.27434 0.38171,-0.59277 -0.46814,-0.80862 -1.88854,-0.47966 -1.4204,0.32895 -4.57322,0.0439 -7.00627,-0.63362 -7.57205,-2.10834 30.96022,-3.58142 61.19492,-2.33949 15.00381,0.61631 30.10711,1.1842 33.5629,1.26198 4.3782,0.0985 6.0688,0.67781 5.57595,1.9105 -0.42916,1.07339 0.57918,1.80818 2.5642,1.86854 3.13871,0.0954 3.1518,0.14884 0.32237,1.31578 -2.81402,1.16058 -2.79712,1.22087 0.36865,1.31577 3.7769,0.11322 4.62387,-3.75409 1.10593,-5.04974 -1.21653,-0.44805 -2.21187,-1.64871 -2.21187,-2.66816 0,-1.01944 -0.58191,-2.06581 -1.29314,-2.32528 -2.26076,-0.82475 -12.11987,-21.04297 -11.06221,-22.68546 0.5789,-0.89899 0.34985,-1.18112 -0.53349,-0.65715 -1.85814,1.1022 -3.74631,-2.93744 -2.37116,-5.07298 0.53602,-0.83239 0.27928,-1.09655 -0.57391,-0.59045 -1.62007,0.96097 -14.55116,-21.05924 -14.19274,-24.1687 0.11119,-0.9646 -0.27714,-1.46952 -0.86295,-1.12205 -1.38234,0.81997 -6.39159,-9.22551 -5.18015,-10.38819 0.50657,-0.48621 1.84388,0.32726 2.97177,1.8077 2.15245,2.82522 2.5882,2.3868 4.08636,-4.11141 0.589,-2.55482 0.66923,-2.52332 0.82362,0.32347 0.15398,2.83925 0.53892,2.99312 3.85749,1.5419 4.46455,-1.95235 4.53023,-2.58528 0.67984,-6.5519 -4.70867,-4.85084 -8.18795,-3.93062 -7.48083,1.97859 0.10115,0.8458 -1.42752,2.24256 -3.39719,3.1039 -3.46121,1.51358 -3.88226,1.04375 -12.56563,-14.02165 -4.94142,-8.57323 -8.53615,-16.33863 -7.98828,-17.25643 0.54785,-0.9178 0.44886,-1.19254 -0.21998,-0.61053 -0.66885,0.58201 -2.7452,-1.32858 -4.61413,-4.24576 -3.37248,-5.26411 -4.87953,-10.08144 -1.88066,-6.01159 1.39046,1.887 1.49719,1.887 0.96048,0 -0.33208,-1.16759 -1.35444,-2.12288 -2.27189,-2.12288 -2.52284,0 -12.1406,-15.99927 -10.10017,-16.80176 0.93061,-0.366 0.199,-0.71574 -1.62579,-0.77719 -1.82479,-0.0614 -3.15191,0.45231 -2.94916,1.14166 0.6647,2.25999 -9.51496,17.13468 -11.08782,16.20172 -0.88655,-0.52588 -1.0917,-0.22395 -0.48649,0.71592 0.94679,1.47031 -30.71872,57.10422 -34.95444,61.41232 -0.96999,0.98658 -1.76362,2.43063 -1.76362,3.20902 0,2.38223 -26.40811,47.22037 -27.44791,46.60359 -0.53534,-0.31755 -0.88239,0.53029 -0.7712,1.8841 0.11118,1.3538 -0.62729,2.30225 -1.64106,2.10765 -1.70176,-0.32666 -2.51002,1.47089 -1.97045,4.38223 0.33068,1.78414 -10.35429,19.73847 -13.03606,21.90493 -1.27586,1.0307 -1.51166,1.48344 -0.52399,1.00606 0.98766,-0.47737 -0.60558,3.13738 -3.54055,8.03275 -2.93496,4.8954 -6.91072,11.95406 -8.83502,15.68593 -2.16129,4.19148 -4.1361,6.40713 -5.16611,5.79616 -1.00234,-0.59456 -1.2602,-0.35671 -0.6465,0.59635 1.22339,1.89983 -4.39578,13.00448 -6.58051,13.00448 -0.8424,0 -1.12154,0.63687 -0.6203,1.41526 0.50124,0.77839 -0.12313,1.41525 -1.38755,1.41525 -1.26439,0 -2.29889,-0.95529 -2.29889,-2.12288 0,-2.39867 -1.67381,-2.76215 -3.76017,-0.81653 -0.77047,0.7185 -3.39153,1.61898 -5.82458,2.00107 -2.88033,0.45234 -2.23724,0.60073 1.84322,0.42533 3.44683,-0.14818 6.26695,0.27117 6.26695,0.9319 0,0.66071 -13.93541,0.99597 -30.96758,0.74502 -17.03217,-0.25095 -30.968428,-0.13785 -30.969463,0.25135 -10e-4,0.38919 -1.991048,0.77544 -4.422248,0.85832 -2.431202,0.0829 -4.420367,-0.16687 -4.420367,-0.55501 z M 448.7161,398.72767 c -6.28538,-0.26528 -16.57055,-0.26528 -22.85593,0 -6.28538,0.26529 -1.1428,0.48235 11.42797,0.48235 12.57076,0 17.71334,-0.21706 11.42796,-0.48235 z M 147.16525,397.4271 c -1.01377,-0.39261 -2.67267,-0.39261 -3.68644,0 -1.01377,0.3926 -0.18432,0.71384 1.84322,0.71384 2.02755,0 2.857,-0.32124 1.84322,-0.71384 z m -33.40835,-2.10791 c 0.57727,-0.89648 -0.0471,-2.39963 -1.38755,-3.34035 -1.34043,-0.94071 -2.43715,-2.7547 -2.43715,-4.03106 0,-1.27637 -0.93321,-2.32067 -2.07381,-2.32067 -1.3065,0 -1.80457,-0.98821 -1.34612,-2.67079 0.8165,-2.99668 -1.77834,-5.37451 -2.86817,-2.62829 -0.81792,2.06104 6.05494,16.62111 7.84574,16.62111 0.66961,0 1.68978,-0.73348 2.26706,-1.62995 z m 302.03514,-1.97327 c 0.51824,-1.98177 0.55101,-4.2108 0.0729,-4.95339 -1.54891,-2.40534 -5.11913,-1.42889 -5.11913,1.40009 0,1.51264 -1.47476,3.74167 -3.27726,4.95339 -3.22472,2.16782 -3.19184,2.20313 2.05202,2.20313 4.48043,0 5.47934,-0.57391 6.27152,-3.60322 z m 55.15563,1.18461 c -2.0963,-2.42428 -4.16801,-2.32099 -4.16801,0.20777 0,1.14476 1.25721,1.94404 2.87398,1.82715 2.17266,-0.15708 2.48844,-0.65365 1.29403,-2.03492 z m -302.03242,-3.93247 c 0,-1.06604 0.96955,-2.86881 2.15455,-4.00613 1.88967,-1.81365 1.70862,-2.56552 -1.47278,-6.11593 -1.99502,-2.22642 -3.62813,-5.79942 -3.62912,-7.94 -10e-4,-2.94787 -0.71717,-3.89195 -2.95095,-3.89195 -1.63842,0 -2.94915,0.94351 -2.94915,2.12289 0,1.16758 0.6869,2.12288 1.52645,2.12288 1.02194,0 0.99112,0.96004 -0.0932,2.90468 -0.89084,1.59757 -1.32294,3.98581 -0.96022,5.3072 0.47843,1.74297 0.70643,1.54055 0.83053,-0.73739 0.11074,-2.03403 0.87971,-2.87889 2.18318,-2.39882 2.97757,1.09662 5.59703,7.54806 4.46037,10.98533 -0.9762,2.95196 -1.01167,2.94626 -2.28913,-0.36811 -0.71367,-1.85161 -1.63367,-3.04397 -2.04444,-2.64973 -0.41077,0.39425 -0.0661,2.43563 0.7662,4.5364 1.49791,3.78138 4.4677,3.86692 4.4677,0.12868 z m 235.0505,-7.80146 c 1.65611,0 2.39567,-0.88229 2.07606,-2.4767 -0.37034,-1.84747 -2.08365,-2.53469 -6.74373,-2.70499 -3.43597,-0.12553 -6.24723,0.38968 -6.24723,1.14497 0,0.75529 0.66356,0.97965 1.47457,0.49858 0.86623,-0.51382 1.47458,1.00192 1.47458,3.67396 0,4.31699 0.13728,4.42936 2.69662,2.20641 1.48314,-1.28824 3.85424,-2.34223 5.26913,-2.34223 z m 67.74649,-0.76867 c -0.48026,-1.20115 -1.18944,-1.88039 -1.57596,-1.50941 -0.38653,0.37098 -0.26539,1.35375 0.26919,2.18392 1.454,2.25798 2.30385,1.81932 1.30677,-0.67451 z m -357.35631,-7.99336 c 0,-0.62961 -0.66356,-1.14475 -1.47457,-1.14475 -0.81102,0 -1.47458,-0.99289 -1.47458,-2.20641 0,-1.21353 -0.69578,-1.79368 -1.54618,-1.28926 -0.95264,0.56509 -1.0299,1.54788 -0.20126,2.56023 0.7397,0.90368 1.20744,3.16927 1.03941,5.03465 -0.28573,3.17204 -0.17725,3.22324 1.67584,0.79094 1.08974,-1.43035 1.98134,-3.11578 1.98134,-3.7454 z m 305.23729,3.10101 c 0,-1.887 -0.98305,-2.83051 -2.94915,-2.83051 -3.34244,0 -3.77933,1.46763 -1.17966,3.96271 2.59966,2.49508 4.12881,2.07577 4.12881,-1.1322 z m -236.2553,-10.31402 c 2.21128,-2.37519 2.13528,-2.45278 -1.24121,-1.26713 -4.64671,1.63167 -8.14444,7.45072 -6.61515,11.0054 1.01191,2.35211 1.43961,2.06259 3.33093,-2.25476 1.19347,-2.72436 3.22991,-6.09195 4.52543,-7.48351 z m 212.1247,5.37098 c 0.42382,-1.06006 0.47058,-3.40663 0.10396,-5.21462 l -0.66676,-3.28725 -1.06979,3.08638 c -0.65107,1.8784 -1.88516,2.7861 -3.15307,2.31912 -1.44438,-0.53196 -1.80366,-0.0679 -1.17151,1.51319 0.50147,1.25426 0.19805,2.28046 -0.67429,2.28046 -0.87233,0 -1.20877,0.94363 -0.74764,2.09697 0.64445,1.61186 1.5058,1.75413 3.72345,0.61504 1.58678,-0.81505 3.23181,-2.34924 3.65565,-3.40929 z m 67.89719,-1.29246 c 0.24273,-3.03096 -0.10823,-3.5567 -1.58774,-2.37823 -1.04464,0.8321 -2.22504,1.2003 -2.62312,0.81824 -0.56973,-0.54681 -0.47413,3.80606 0.13492,6.14436 0.0675,0.25947 0.9422,0.20964 1.94358,-0.11068 1.00139,-0.32037 1.96094,-2.3335 2.13233,-4.47363 z m -326.88523,0.57448 c 0,-1.55678 -0.66356,-2.83051 -1.47458,-2.83051 -0.81102,0 -1.47458,0.26636 -1.47458,0.59188 0,0.32554 -0.40277,1.59926 -0.89505,2.83051 -0.58734,1.46902 -0.0804,2.23863 1.47458,2.23863 1.38658,0 2.36963,-1.17425 2.36963,-2.83051 z m 244.77966,1.41526 c 0,-0.77839 -0.70273,-1.41526 -1.56161,-1.41526 -0.85888,0 -1.15149,0.63687 -0.65026,1.41526 0.50124,0.77839 1.20397,1.41525 1.56161,1.41525 0.35764,0 0.65026,-0.63686 0.65026,-1.41525 z m 64.88135,-0.6241 c 0,-1.12165 -0.66356,-2.43296 -1.47457,-2.91404 -0.81102,-0.48107 -1.47458,0.43664 -1.47458,2.03936 0,1.60271 0.66356,2.91403 1.47458,2.91403 0.81101,0 1.47457,-0.91771 1.47457,-2.03935 z m -70.67122,-5.25125 c -1.62558,-1.67467 -2.60761,-3.58526 -2.18228,-4.24576 1.21145,-1.88132 -2.80053,-1.31962 -5.71102,0.79959 -2.19037,1.59487 -2.26701,2.04192 -0.46392,2.706 1.18797,0.43752 2.50914,0.0352 2.93593,-0.89408 0.50482,-1.09914 1.63156,-0.57678 3.22428,1.49477 1.34657,1.75137 3.05677,3.18432 3.80045,3.18432 0.74369,0 0.0221,-1.37018 -1.60344,-3.04484 z m -247.21211,-1.11159 c 1.01423,-0.80787 2.74152,-5.13888 3.83841,-9.62444 1.09689,-4.48556 2.86378,-8.66486 3.92641,-9.28734 2.15236,-1.2608 2.68581,-9.48264 0.61526,-9.48264 -1.59733,0 -3.10692,3.49445 -3.10692,7.19203 0,1.4931 -0.61616,2.71475 -1.36924,2.71475 -2.21836,0 -6.00364,-4.25762 -6.00364,-6.75278 0,-1.72719 -0.4219,-1.89991 -1.68343,-0.68913 -1.26152,1.21076 -1.04081,2.91543 0.88064,6.80169 2.55476,5.16718 2.54747,5.2164 -2.00723,13.55593 l -4.5713,8.36993 3.81849,-0.66456 c 2.10016,-0.36552 4.64831,-1.32556 5.66255,-2.13344 z m 323.14164,-0.24043 c 0.70605,-1.09642 1.37168,-1.00258 2.21872,0.31283 1.61449,2.50721 2.9035,1.04878 3.77756,-4.27405 0.56183,-3.42141 0.181,-4.37921 -1.74115,-4.37921 -1.87147,0 -2.24426,-0.82598 -1.55771,-3.45139 0.52092,-1.99203 0.18043,-3.87975 -0.80527,-4.46444 -1.06004,-0.62879 -1.30874,-0.39328 -0.65567,0.62089 0.57868,0.89866 0.35834,1.63392 -0.48966,1.63392 -1.80087,0 -6.00513,9.03851 -6.00513,12.91012 0,2.88112 3.62177,3.63279 5.25831,1.09133 z M 185.57602,360.628 c -0.55382,-1.38517 -0.34101,-1.99879 0.51675,-1.49001 0.87603,0.51964 1.21658,-0.71589 0.85288,-3.09428 -0.49847,-3.2596 -1.36341,-3.98001 -4.89421,-4.07636 -3.20601,-0.0875 -4.28873,0.53198 -4.28873,2.45375 0,1.41394 1.32712,2.90388 2.94915,3.31099 1.62204,0.40711 2.94916,1.75511 2.94916,2.99557 0,1.24046 0.64274,2.25538 1.4283,2.25538 0.78555,0 1.00457,-1.05977 0.4867,-2.35504 z m -67.73439,-4.67803 c -0.81154,-0.77889 -3.42995,2.87062 -3.46312,4.82687 -0.0124,0.73256 0.91851,0.0967 2.06872,-1.41303 1.15022,-1.50972 1.7777,-3.04595 1.3944,-3.41384 z m 248.66685,1.41639 c 0,-2.12301 0.9641,-2.87485 3.68644,-2.87485 2.02754,0 3.68644,0.56874 3.68644,1.26384 0,0.69512 1.06921,1.65763 2.37604,2.13893 1.70019,0.62618 2.1328,0.26669 1.52086,-1.26384 -0.52378,-1.31004 -0.016,-2.13893 1.31039,-2.13893 1.19107,0 2.16559,-0.5539 2.16559,-1.2309 0,-0.67699 -1.16123,-1.19854 -2.58051,-1.15899 -1.41928,0.0395 -4.43203,-0.43733 -6.695,-1.05972 -2.99605,-0.824 -4.83139,-0.50895 -6.75172,1.159 -1.45045,1.25984 -3.6919,2.29061 -4.98099,2.29061 -8.63068,0 -7.71019,4.84654 1.02775,5.41133 4.39427,0.28404 5.23471,-0.12327 5.23471,-2.53648 z m -10.32204,-0.28022 c 0,-0.64865 0.6244,-1.17937 1.38755,-1.17937 0.76315,0 1.72931,0.53072 2.147,1.17937 0.4177,0.64867 -0.2067,1.17939 -1.38755,1.17939 -1.18084,0 -2.147,-0.53072 -2.147,-1.17939 z m 41.01154,-2.96898 c 0.58686,-2.92473 -3.66994,-4.8955 -5.91662,-2.73921 -2.24668,2.1563 -0.19331,6.24186 2.85402,5.6786 1.41243,-0.26106 2.7906,-1.58378 3.0626,-2.93939 z m -4.14713,-1.0409 c 0,-0.77839 0.66356,-1.41526 1.47457,-1.41526 0.81102,0 1.47458,0.63687 1.47458,1.41526 0,0.77839 -0.66356,1.41525 -1.47458,1.41525 -0.81101,0 -1.47457,-0.63686 -1.47457,-1.41525 z m -46.65319,-0.70763 c -0.46684,-1.16758 -2.27079,-2.10031 -4.00881,-2.07272 -2.99562,0.0476 -2.96822,0.15538 0.5264,2.07272 4.61938,2.53444 4.49572,2.53444 3.48241,0 z m 98.44336,-4.49343 c -1.28517,-2.12114 -1.57292,-2.18228 -1.60974,-0.34202 -0.0476,2.3834 1.50288,4.52937 2.54795,3.52634 0.34469,-0.33081 -0.0776,-1.76376 -0.93821,-3.18432 z m -255.2817,0.9553 c 0,-0.77839 -0.70272,-1.41526 -1.5616,-1.41526 -0.85889,0 -1.1515,0.63687 -0.65026,1.41526 0.50124,0.77839 1.20396,1.41525 1.5616,1.41525 0.35765,0 0.65026,-0.63686 0.65026,-1.41525 z m 159.78749,-0.70763 c -0.94016,-2.35146 -2.88431,-2.78139 -4.09258,-0.90503 -0.98611,1.53139 0.50725,3.02791 3.02152,3.02791 1.1007,0 1.55769,-0.90578 1.07106,-2.12288 z m -12.32986,-2.12288 c 0,-2.33117 -0.97552,-2.82669 -5.52966,-2.80884 -4.09547,0.016 -4.95599,0.37474 -3.3178,1.38294 1.21653,0.74871 3.38976,1.00939 4.82942,0.57931 1.43965,-0.43008 2.5223,-0.25633 2.40589,0.38612 -0.32882,1.81458 0.0637,3.29098 0.87486,3.29098 0.40551,0 0.73729,-1.27373 0.73729,-2.83051 z m -145.36882,-1.92032 c -0.51136,-1.27899 -1.52232,-2.32544 -2.24657,-2.32544 -2.01209,0 -1.56706,3.9241 0.52641,4.64169 2.4925,0.85437 2.81449,0.4208 1.72016,-2.31625 z m 259.56947,0.15125 c -1.76126,-5.52542 -3.0918,-7.25291 -4.22768,-5.48895 -0.5656,0.87835 -0.19295,1.597 0.82814,1.597 1.37401,0 1.42584,0.41335 0.1994,1.59045 -1.22643,1.17709 -1.20726,2.08266 0.0737,3.4843 2.68018,2.93259 4.24904,2.33905 3.12641,-1.1828 z m -255.19372,-8.13771 c 0.51874,-3.11356 1.5989,-5.66102 2.40033,-5.66102 0.80143,0 1.45715,-0.63686 1.45715,-1.41525 0,-3.16244 -2.996,-1.07083 -6.46615,4.51426 -3.72562,5.99626 -3.79898,8.22303 -0.27088,8.22303 1.11886,0 2.33458,-2.39003 2.87955,-5.66102 z m 143.94222,4.24576 c 0,-0.77839 -1.16123,-1.4055 -2.58051,-1.39359 -2.2053,0.0185 -2.2589,0.22115 -0.36864,1.39359 2.78283,1.72606 2.94915,1.72606 2.94915,0 z m -16.22034,-2.2743 c 0,-0.30591 -0.99534,-0.55621 -2.21186,-0.55621 -1.21653,0 -2.21187,0.61688 -2.21187,1.37085 0,0.75394 0.99534,1.00425 2.21187,0.55621 1.21652,-0.44806 2.21186,-1.06493 2.21186,-1.37085 z M 132.27203,334.9846 c -0.93267,-0.29839 -1.74814,-1.60397 -1.81217,-2.90127 -0.0662,-1.34154 -0.42542,-1.62968 -0.83292,-0.66816 -0.39408,0.92984 0.10127,3.15716 1.10077,4.94963 1.34729,2.41615 2.00127,2.72926 2.52868,1.21066 0.39127,-1.1266 -0.0517,-2.29248 -0.98436,-2.59086 z m 52.70916,-1.81348 c -2.59347,-1.53837 -2.85233,-1.1331 -1.78303,2.79143 0.8021,2.94384 1.04284,3.02989 2.32492,0.8311 1.01224,-1.736 0.85389,-2.79461 -0.54189,-3.62253 z m 128.44254,2.92209 c 0,-1.78946 -3.01325,-1.78946 -5.89831,0 -1.72358,1.06905 -1.3167,1.37669 1.84322,1.39359 2.2303,0.0119 4.05509,-0.6152 4.05509,-1.39359 z m 34.99047,-2.27031 c -0.49,-0.47027 -1.76182,-0.52054 -2.82628,-0.11166 -1.17631,0.45177 -0.82691,0.78713 0.8909,0.85504 1.55444,0.0614 2.42537,-0.27305 1.93538,-0.74332 z m -29.06959,-3.03689 c 0.0133,-1.52248 0.43997,-1.87907 1.10593,-0.92554 1.92708,2.75921 8.69492,3.56125 10.67993,1.26566 1.00313,-1.16005 3.03056,-2.10919 4.50544,-2.10919 1.47485,0 2.98896,-0.47765 3.36467,-1.06144 0.37571,-0.5838 -2.37223,-1.12553 -6.1065,-1.20386 -3.73429,-0.0783 -7.04383,-0.8744 -7.35455,-1.76907 -0.36633,-1.05477 -4.95887,-1.62665 -13.06299,-1.62665 -7.51641,0 -12.15302,0.5358 -11.63244,1.34425 0.4761,0.73933 -0.48009,2.03546 -2.12483,2.8803 -3.82816,1.96635 -3.85043,4.26698 -0.0413,4.26698 1.63841,0 2.94915,-0.94351 2.94915,-2.12289 0,-2.74461 6.77097,-2.83914 7.86223,-0.10982 0.69361,1.73479 2.13922,2.30715 8.72675,3.45517 0.60827,0.10601 1.11609,-0.92178 1.12851,-2.28396 z M 189.66992,330.043 c -0.18239,-1.69222 -2.20492,-1.36451 -2.83856,0.45995 -0.32441,0.93407 0.20644,1.44356 1.17966,1.13221 0.97322,-0.31136 1.71972,-1.02783 1.6589,-1.59216 z m 159.14364,1.18035 c 0,-1.49378 -2.82987,-2.12134 -3.67158,-0.81424 -0.5094,0.79108 0.10824,1.43834 1.37269,1.43834 1.26439,0 2.29889,-0.28085 2.29889,-0.6241 z m -188.00032,-2.21908 c 1.15262,-1.78994 -0.50485,-7.0636 -2.22002,-7.0636 -1.71517,0 -3.37264,5.27366 -2.22002,7.0636 0.50572,0.78535 1.50473,1.42792 2.22002,1.42792 0.71529,0 1.7143,-0.64257 2.22002,-1.42792 z m 278.50077,-2.03641 c 1.45009,-2.12407 1.80093,-3.79897 0.90688,-4.32929 -0.80199,-0.47572 -1.45818,-0.0844 -1.45818,0.8697 0,0.95407 -0.41077,1.3404 -0.91283,0.85855 -1.11885,-1.07385 -4.98547,2.45428 -4.98547,4.54903 0,2.78421 4.05513,1.55944 6.4496,-1.94799 z m -292.5174,0.0273 c 0,-1.112 0.90779,-2.89306 2.01732,-3.95796 2.47415,-2.37463 4.53065,-8.18964 2.87443,-8.12779 -2.34061,0.0875 -5.94208,3.54692 -8.35158,8.02243 -3.09077,5.74089 -3.06189,6.08511 0.51068,6.08511 1.62203,0 2.94915,-0.90981 2.94915,-2.02179 z m 136.73623,1.16673 c -0.49,-0.47027 -1.76182,-0.52054 -2.82627,-0.11166 -1.17632,0.45178 -0.82691,0.78714 0.89089,0.85504 1.55444,0.0614 2.42537,-0.27305 1.93538,-0.74332 z m 144.48058,-1.97545 c 0.42418,-1.55678 1.35739,-2.83051 2.07382,-2.83051 0.71642,0 1.30259,-1.56052 1.30259,-3.46781 0,-1.9073 1.16123,-4.11696 2.58051,-4.91035 1.41928,-0.79341 1.79721,-1.46192 0.83984,-1.48558 -0.95736,-0.0236 -2.02724,-1.15755 -2.37753,-2.51973 -0.35028,-1.36219 -0.47884,-0.99547 -0.28567,0.81493 0.25064,2.34908 -0.10307,2.85566 -1.23518,1.76907 -0.8725,-0.83741 -2.63242,-1.52256 -3.91094,-1.52256 -1.811,0 -2.20392,1.21406 -1.77852,5.49539 0.30051,3.02437 -0.17925,5.9256 -1.06697,6.45215 -2.45038,1.4535 -1.92617,5.03551 0.73692,5.03551 1.29245,0 2.69695,-1.27373 3.12113,-2.83051 z m -144.08122,-2.2743 c 0,-0.30591 -0.99533,-0.55621 -2.21186,-0.55621 -1.21653,0 -2.21186,0.61688 -2.21186,1.37084 0,0.75395 0.99533,1.00425 2.21186,0.55621 1.21653,-0.44805 2.21186,-1.06492 2.21186,-1.37084 z m 137.1356,-6.38427 c 0,-1.55678 -0.66356,-2.43691 -1.47458,-1.95584 -0.81102,0.48108 -1.47457,2.1484 -1.47457,3.70518 0,1.55678 0.66355,2.43691 1.47457,1.95584 0.81102,-0.48107 1.47458,-2.1484 1.47458,-3.70518 z m -49.28736,-5.15161 c -1.77911,-1.70755 -2.62693,1.10609 -1.47615,4.89893 l 1.20085,3.95786 0.56177,-4.02133 c 0.30898,-2.21173 0.18007,-4.38769 -0.28647,-4.83546 z m -161.42819,4.78318 c -1.18258,-1.36762 -1.24748,-3.05985 -0.21706,-5.66102 1.69143,-4.26979 1.21998,-4.61356 -2.03834,-1.48631 -2.45864,2.35974 -3.27168,8.41603 -0.94451,7.03562 0.75499,-0.44784 1.78949,-0.16698 2.2989,0.6241 0.50941,0.79109 1.30007,1.43834 1.75701,1.43834 0.45696,0 0.0718,-0.87783 -0.856,-1.95073 z m 150.19033,-5.24676 c -0.90526,-1.62344 -2.01851,-2.59413 -2.47387,-2.15707 -0.45538,0.43704 0.0118,1.76531 1.0373,2.95171 2.65103,3.06578 3.36804,2.66915 1.43657,-0.79464 z m -204.89851,-2.28472 c 0,-2.62832 -0.47542,-3.36489 -1.52291,-2.35954 -0.83761,0.80391 -1.0984,2.52345 -0.57953,3.82119 1.36589,3.41627 2.10244,2.9042 2.10244,-1.46165 z m 215.71423,-4.71534 c 1.13053,-0.0284 0.94017,-0.67761 -0.5188,-1.76907 -1.26752,-0.94823 -3.56716,-3.79387 -5.11031,-6.32364 -1.54314,-2.52976 -3.2735,-4.59957 -3.84521,-4.59957 -0.57172,0 -1.47671,-1.91059 -2.0111,-4.24576 -0.7532,-3.29132 -1.77399,-4.24577 -4.5409,-4.24577 -1.96309,0 -3.56927,0.63687 -3.56927,1.41526 0,0.77839 0.70273,1.41525 1.56161,1.41525 0.85888,0 1.19821,0.56432 0.75408,1.25403 -0.44414,0.68971 1.83915,4.03296 5.07399,7.42946 6.22601,6.53715 6.87983,8.19056 4.2405,10.72371 -0.90255,0.86623 -1.1643,2.31528 -0.58166,3.22008 0.73904,1.14769 1.9214,0.75704 3.91032,-1.29193 1.56802,-1.61538 3.65456,-2.9573 4.63675,-2.98205 z m 57.03012,-2.70219 c -0.0344,-1.44833 -0.82301,-0.99079 -2.29599,1.33194 l -2.24376,3.53814 0.78223,-4.24577 c 0.70767,-3.84101 0.62738,-3.94964 -0.84216,-1.13957 -0.89341,1.70839 -1.16015,4.25585 -0.59277,5.66101 0.97997,2.42694 1.13707,2.4173 3.13816,-0.19236 1.1586,-1.51095 2.08303,-3.73998 2.05429,-4.95339 z m -281.70823,0.82671 c -0.0795,-2.07015 -0.37634,-2.35903 -0.93528,-0.91002 -0.45038,1.16758 -1.48718,2.93354 -2.30402,3.92434 -1.11102,1.34766 -0.87541,1.57691 0.93529,0.91002 1.33123,-0.49028 2.36804,-2.25624 2.30401,-3.92434 z m 68.47596,-0.97211 c 0.77584,-3.72309 1.28125,-4.11083 3.72337,-2.85642 2.16538,1.11225 3.02847,0.94423 3.69347,-0.71905 0.47729,-1.19375 0.28729,-1.82612 -0.42223,-1.40526 -0.70952,0.42087 -1.69404,-0.66056 -2.1878,-2.40319 -0.63143,-2.22849 0.037,-3.91362 2.25311,-5.68048 1.73298,-1.38165 2.70588,-2.93917 2.16201,-3.46117 -2.69845,-2.58987 -5.09929,-0.79713 -8.21778,6.1363 -1.88521,4.19148 -3.99674,7.62085 -4.69228,7.62085 -0.69555,0 -1.26463,1.59216 -1.26463,3.53813 0,5.04435 3.86643,4.44348 4.95276,-0.76971 z m -58.03751,-1.84961 c 0,-1.82981 -0.7571,-5.41141 -1.68246,-7.95908 -1.49458,-4.11492 -1.85019,-4.34445 -3.18477,-2.05564 -1.07192,1.83837 -1.00056,2.73703 0.24907,3.13681 1.15356,0.36906 1.42964,2.20638 0.8088,5.38258 -0.75553,3.8653 -0.47107,4.82228 1.43339,4.82228 1.51111,0 2.37597,-1.21103 2.37597,-3.32695 z m 264.29925,-4.04972 c 0.88248,-2.54093 -0.49473,-8.19112 -1.99657,-8.19112 -0.71647,0 -1.30267,2.22902 -1.30267,4.95339 0,4.764 2.06526,6.79075 3.29924,3.23773 z M 210.09974,285.49787 c 0.10366,-3.18398 -1.94712,-4.30918 -3.48918,-1.91443 -0.44976,0.69846 -0.37901,3.37531 0.15721,5.9486 0.82695,3.9684 1.146,4.25904 2.10164,1.91441 0.6197,-1.52033 1.17334,-4.1972 1.23033,-5.94858 z m -47.21453,-1.29954 c 1.28644,-0.90935 1.83548,-2.13658 1.22012,-2.7272 -1.38467,-1.32895 -5.44367,3.60627 -5.3488,6.50344 0.0618,1.887 0.16508,1.887 0.92962,0 0.47304,-1.16759 1.91263,-2.8669 3.19906,-3.77624 z m 210.99615,1.65335 c 0,-2.73915 -2.89476,-4.15644 -4.78463,-2.3426 -1.12164,1.07652 -1.03609,2.1423 0.29556,3.6823 2.0788,2.40402 4.48907,1.68472 4.48907,-1.3397 z m 33.76959,-5.74191 c 3.05515,-4.96976 4.39128,-8.98785 1.62024,-4.87249 -1.22159,1.81421 -1.4327,1.76277 -1.452,-0.35382 -0.0124,-1.36218 0.64098,-2.47669 1.452,-2.47669 0.81101,0 1.47457,-0.9553 1.47457,-2.12288 0,-1.16759 -0.55705,-2.12288 -1.23787,-2.12288 -1.45413,0 -4.66043,6.32631 -4.66043,9.19541 0,1.09228 -1.0885,2.57063 -2.4189,3.28519 -1.33039,0.71458 -1.95478,2.01995 -1.38754,2.90083 1.72878,2.6847 3.3748,1.82988 6.60993,-3.43267 z m -226.93909,0.78852 c 0,-1.55678 -0.65092,-2.8305 -1.44648,-2.8305 -0.79556,0 -1.86168,-1.58776 -2.36916,-3.52836 -0.50747,-1.9406 -1.45878,-3.21035 -2.11401,-2.82169 -0.65524,0.38867 -1.52928,-0.0934 -1.94231,-1.07122 -0.56816,-1.34507 -1.13178,-1.26108 -2.31523,0.345 -1.39046,1.887 -1.58618,1.887 -1.76155,0 -0.10853,-1.16759 -0.0743,-2.98288 0.0761,-4.03397 0.41352,-2.89123 -2.40465,-0.66857 -3.29484,2.59861 -0.4383,1.60862 -0.16739,2.49247 0.62068,2.02499 0.80337,-0.47653 1.21545,1.17877 0.96842,3.89 -0.23653,2.59573 0.23352,4.71952 1.04454,4.71952 0.81102,0 1.37532,-0.83691 1.25402,-1.85979 -0.15256,-1.28644 0.64298,-1.10974 2.58051,0.57317 1.63783,1.42258 2.80106,1.75412 2.80106,0.79834 0,-0.89904 0.66356,-1.6346 1.47458,-1.6346 0.81102,0 1.47458,1.27372 1.47458,2.8305 0,1.55678 0.66356,2.83051 1.47457,2.83051 0.81102,0 1.47458,-1.27373 1.47458,-2.83051 z m 53.36435,-4.54351 c -0.95288,-0.91454 -0.62642,-2.77406 0.94975,-5.40991 2.81059,-4.70015 1.48207,-7.00364 -2.07197,-3.59258 -1.3517,1.29732 -2.08921,2.71235 -1.63893,3.14451 0.45028,0.43216 0.23073,2.27 -0.48789,4.08405 -0.89924,2.27004 -0.75496,3.48879 0.46279,3.90928 2.6062,0.8999 4.4647,-0.52443 2.78625,-2.13535 z m 114.20945,-1.55217 c 1.73222,0.63797 2.12773,-0.0742 1.75136,-3.15344 -0.60881,-4.98085 -4.17261,-6.48941 -4.17261,-1.76627 0,1.85516 -0.73846,4.08177 -1.64101,4.94802 -0.98032,0.94087 -1.12947,2.33689 -0.37046,3.46737 0.94877,1.41313 1.38762,1.10577 1.73288,-1.2137 0.31432,-2.11164 1.17868,-2.84222 2.69984,-2.28198 z m 50.64092,-4.3627 c 0.0118,-1.47096 1.09924,-3.43009 2.41515,-4.3536 1.6399,-1.15088 2.06442,-2.67144 1.34944,-4.8335 -1.30366,-3.94225 -4.0337,-3.24518 -4.74224,1.21084 -0.29317,1.84378 -1.2575,4.19013 -2.14294,5.21409 -0.9109,1.05342 -1.17429,3.52751 -0.60663,5.69828 0.78626,3.00665 1.29543,3.39328 2.35396,1.78745 0.74286,-1.12699 1.36084,-3.25259 1.37326,-4.72356 z m -56.63159,-4.25968 c 2.89949,-1.24299 7.13223,-7.80878 5.83605,-9.05283 -0.3584,-0.34396 -1.72595,0.40573 -3.03903,1.66597 -1.31308,1.26025 -3.00356,2.29137 -3.75666,2.29137 -0.75308,0 -1.36925,0.68235 -1.36925,1.51634 0,0.83398 -0.93627,2.41495 -2.0806,3.51324 -1.23901,1.18917 -1.72003,3.295 -1.1892,5.20611 0.89088,3.20737 0.8919,3.20718 1.76012,-0.32891 0.47779,-1.94598 2.20515,-4.11106 3.83857,-4.81129 z m -157.1594,-3.68024 c 0,-2.83051 -0.73728,-4.24576 -2.21186,-4.24576 -3.96599,0 -2.89837,-11.8805 1.47458,-16.40917 4.23837,-4.3893 4.59472,-6.58009 1.47457,-9.06541 -1.8279,-1.45598 -2.25085,-1.30181 -2.43646,0.88816 -0.12356,1.45748 -0.37877,3.28684 -0.56719,4.06523 -0.18844,0.77839 -0.41915,2.21134 -0.5127,3.18432 -0.0935,0.97299 -1.09975,1.76907 -2.236,1.76907 -1.4053,0 -2.01921,1.58168 -1.91984,4.94623 0.0991,3.35592 -0.7775,5.62361 -2.72646,7.05302 -2.81631,2.06553 -2.80727,2.12439 0.46139,3.00678 1.83365,0.495 3.72924,2.41165 4.21238,4.25923 0.48316,1.84759 1.47123,3.00763 2.19573,2.57787 0.72451,-0.42975 1.31729,-0.10685 1.31729,0.71741 0,0.82433 0.33178,1.49878 0.73729,1.49878 0.4055,0 0.73728,-1.91059 0.73728,-4.24576 z m 58.15035,-1.27095 c -0.44123,-0.42348 -1.44987,0.1669 -2.24142,1.31194 -1.05916,1.53214 -1.21707,1.1476 -0.598,-1.45624 0.46265,-1.94598 -0.13404,-6.0856 -1.32589,-9.19916 l -2.16707,-5.66101 -0.10396,4.59957 c -0.0571,2.52977 -0.78727,4.59958 -1.6225,4.59958 -0.83523,0 -0.006,2.54402 1.84322,5.65337 2.98815,5.02499 3.56501,5.39041 5.18981,3.28764 1.00538,-1.30116 1.46699,-2.71222 1.02575,-3.13569 z m -72.35956,-2.9316 c -0.81154,-0.7789 -3.42996,2.87061 -3.46313,4.82686 -0.0118,0.73256 0.91852,0.0967 2.06873,-1.41303 1.15022,-1.50972 1.77769,-3.04595 1.3944,-3.41383 z m 227.15137,-7.21281 c -0.31762,-5.97066 -1.35384,-8.14948 -3.08537,-6.48761 -0.55421,0.5319 -0.22243,1.72071 0.73729,2.64182 2.12091,2.03559 2.32279,4.44895 0.27033,3.23149 -2.08302,-1.23559 -1.83944,2.62184 0.29492,4.67034 0.97322,0.93407 1.84136,1.6983 1.92921,1.6983 0.0879,0 0.022,-2.58944 -0.14642,-5.75434 z M 252.1028,248.0153 c 1.10201,-0.71588 1.0426,-1.04651 -0.19075,-1.06144 -0.98524,-0.0113 -2.47825,1.2102 -3.3178,2.7158 -2.07703,3.72484 -1.86031,5.76327 0.23559,2.21592 0.9198,-1.55678 2.39262,-3.2984 3.27296,-3.87028 z m -75.14036,1.8452 c 0.46662,-0.72461 0.28458,-1.65189 -0.40449,-2.06063 -0.68908,-0.40874 -1.25287,0.18411 -1.25287,1.31746 0,2.38636 0.46499,2.59486 1.65736,0.74317 z m 71.05454,-7.50313 c 0.49677,-0.77145 -0.0118,-1.95856 -1.1289,-2.63801 -1.71125,-1.04028 -1.70227,-1.23877 0.0569,-1.25702 1.14894,-0.0113 1.73863,-0.35792 1.31043,-0.7689 -0.42819,-0.41097 -2.47614,-0.12779 -4.55098,0.62937 -3.16757,1.15585 -4.17581,3.71017 -2.64769,6.70782 0.37264,0.73099 6.21247,-1.51192 6.96031,-2.67326 z m 77.20336,0.15966 c 0,1.28959 0.61552,1.19608 2.21186,-0.33604 3.0599,-2.93681 2.76694,-4.01669 -0.94542,-3.48494 -1.79752,0.25748 -3.70293,1.97604 -4.4242,3.99038 -1.20262,3.35865 -1.15467,3.39878 0.94544,0.79094 1.25324,-1.55624 2.21232,-1.97256 2.21232,-0.96034 z m 23.59322,-1.24585 c 0,-1.887 -0.98306,-2.83051 -2.94915,-2.83051 -3.42238,0 -3.65961,0.76024 -1.10593,3.54404 2.60249,2.837 4.05508,2.58141 4.05508,-0.71353 z m -91.42373,-4.13001 c 0,-1.49312 0.22303,-3.56293 0.49561,-4.59958 0.27259,-1.03666 0.21592,-1.40321 -0.12593,-0.81456 -0.34185,0.58864 -1.23312,0.7075 -1.98059,0.26411 -1.76678,-1.04801 -3.37484,3.00248 -2.27955,5.7419 1.21257,3.03279 3.89048,2.6254 3.89048,-0.59187 z m 118.47181,-2.55839 c 0.50287,-2.97421 2.27051,-6.27141 4.05448,-7.56293 2.6851,-1.94391 2.90251,-2.75673 1.43923,-5.38091 -2.09105,-3.74998 -4.52484,-2.68754 -4.52484,1.97529 0,1.95637 -1.2546,4.04925 -2.94915,4.91966 -2.07802,1.06738 -2.94916,2.96329 -2.94916,6.41843 0,6.79628 3.76557,6.51399 4.92944,-0.36954 z m 17.18921,3.23379 c 0,-3.37803 -2.39258,-3.72719 -5.19249,-0.75778 -2.56406,2.71928 -2.5285,2.79713 1.2775,2.79713 2.42568,0 3.91499,-0.7758 3.91499,-2.03935 z m -3.68644,-0.79116 c 0.50124,-0.77839 1.20396,-1.41525 1.5616,-1.41525 0.35765,0 0.65026,0.63686 0.65026,1.41525 0,0.77839 -0.70272,1.41526 -1.5616,1.41526 -0.85889,0 -1.1515,-0.63687 -0.65026,-1.41526 z m -188.27717,-8.65229 c -0.42976,-4.32495 0.0161,-5.68171 2.07245,-6.30815 1.44099,-0.43895 2.61997,-1.42963 2.61997,-2.20149 0,-0.77188 0.66356,-1.00982 1.47458,-0.52874 0.81101,0.48107 1.47457,-0.11818 1.47457,-1.33173 0,-1.21352 -0.49767,-2.13099 -1.10593,-2.03881 -3.39008,0.51373 -4.22311,-0.55003 -3.60354,-4.60162 l 0.67806,-4.43403 -3.14532,3.01878 c -3.70164,3.55272 -3.98845,5.62757 -0.93344,6.75273 1.21653,0.44805 2.21187,1.42094 2.21187,2.162 0,0.74104 -0.66356,0.95375 -1.47458,0.47268 -0.81101,-0.48108 -1.47457,0.13813 -1.47457,1.37615 0,1.23795 -0.99534,2.6174 -2.21187,3.06544 -1.26837,0.46715 -2.21186,2.58005 -2.21186,4.95339 0,2.37335 0.94349,4.48625 2.21186,4.95339 1.21653,0.44805 2.28884,1.861 2.38292,3.13991 0.13566,1.84468 0.3169,1.78118 0.87668,-0.30728 0.38811,-1.44791 0.45927,-5.11208 0.15815,-8.14262 z m 121.18395,7.32057 c 0,-1.51084 -0.65597,-3.13609 -1.4577,-3.61165 -0.85214,-0.50547 -1.10842,0.19472 -0.6169,1.68554 0.75105,2.27807 0.5919,2.25704 -1.49146,-0.19699 -2.29428,-2.70245 -2.33225,-2.69862 -2.33225,0.23589 0,2.67686 1.61565,4.20152 4.79237,4.52245 0.60827,0.0614 1.10594,-1.1244 1.10594,-2.63524 z m 63.83687,-2.0295 c 1.4177,-4.08201 0.41244,-6.58429 -1.73887,-4.32832 -0.69278,0.72649 -1.70601,3.13461 -2.2516,5.35136 -1.30633,5.30768 2.09459,4.43578 3.99047,-1.02304 z M 191.63171,221.45762 c 0.71351,-2.7864 0.37612,-2.56088 -1.588,1.06144 -1.37171,2.52977 -3.03719,4.59957 -3.70107,4.59957 -0.66387,0 -1.20705,0.77839 -1.20705,1.72976 0,2.77489 5.49343,-3.4751 6.49612,-7.39077 z m 134.32592,2.83051 c 0,-1.81624 -0.82945,-3.56762 -1.84322,-3.89195 -1.01377,-0.32434 -1.84322,0.13784 -1.84322,1.02702 0,0.8892 0.66356,1.22312 1.47457,0.74205 0.82227,-0.48774 1.4646,0.57092 1.452,2.39316 -0.0181,2.62903 -0.302,2.85286 -1.452,1.14497 -1.20816,-1.7943 -1.4329,-1.72129 -1.452,0.47175 -0.0133,1.45267 0.78867,2.3351 1.82065,2.00495 1.01377,-0.32434 1.84322,-2.07572 1.84322,-3.89195 z m -62.66949,0.0498 c 0,-1.52939 -1.32712,-3.46239 -2.94916,-4.29555 -2.56331,-1.31665 -2.94915,-1.07628 -2.94915,1.83721 0,3.79768 1.08182,5.23903 3.93221,5.23903 1.08135,0 1.9661,-1.25132 1.9661,-2.78071 z m 53.08474,-1.40158 c 0,-2.34775 -0.96564,-4.36204 -2.33247,-4.86543 -3.16956,-1.16735 -3.56583,-1.09626 -3.56583,0.63974 0,0.82433 0.82945,1.04932 1.84322,0.49999 1.47457,-0.79901 1.47457,-0.61759 0,0.90717 -2.79136,2.88632 -2.20831,6.37209 1.10593,6.61171 2.30694,0.16679 2.94915,-0.65923 2.94915,-3.79318 z m 5.89831,-5.4886 c 0,-1.84277 -1.75293,-3.06832 -3.17888,-2.2225 -1.52504,0.90459 -0.21005,3.40185 1.79133,3.40185 0.76315,0 1.38755,-0.53072 1.38755,-1.17937 z m 53.30593,-4.175 c -0.93267,-0.29839 -1.69576,-1.40715 -1.69576,-2.46394 0,-1.05677 -0.60167,-2.2783 -1.33706,-2.71451 -1.70566,-1.01175 -0.22271,4.9555 1.86478,7.50369 1.2818,1.5647 1.69663,1.57792 2.22008,0.0708 0.35404,-1.01942 -0.1193,-2.09762 -1.05204,-2.396 z m -105.69651,-9.39728 c 3.18204,-1.27607 6.48774,-2.06148 7.34602,-1.74538 0.85827,0.31611 2.85313,-1.09688 4.43302,-3.13997 2.29955,-2.97374 2.36476,-3.3219 0.32691,-1.74544 -2.22665,1.72252 -2.42923,1.67819 -1.61678,-0.35382 0.51645,-1.29176 0.20412,-2.32308 -0.70354,-2.32308 -0.8978,0 -1.63234,0.95529 -1.63234,2.12288 0,3.11769 -3.74407,2.58536 -6.1362,-0.87243 -2.03581,-2.94276 -2.14247,-2.89796 -6.07816,2.55276 -2.20328,3.05144 -4.00598,6.30993 -4.00598,7.24108 0,0.93115 -0.66356,1.693 -1.47458,1.693 -0.81101,0 -1.47457,1.05273 -1.47457,2.33943 0,1.9672 0.41612,1.87894 2.61534,-0.55477 1.43843,-1.59181 5.21882,-3.93824 8.40086,-5.21429 z m 32.43201,-4.60784 c -0.0305,-3.8963 -0.78884,-6.85576 -1.84322,-7.19309 -1.6942,-0.54201 -2.03107,0.061 -2.38126,4.26233 -0.0811,0.97299 -0.81102,2.23697 -1.62204,2.80885 -0.84713,0.59733 -0.44971,1.04898 0.93395,1.06144 1.32469,0.0113 2.75557,1.29539 3.17975,2.85217 1.23376,4.52809 1.78841,3.31443 1.73282,-3.7917 z m -98.82267,2.25557 c -0.47477,-0.7373 -1.49175,-0.96772 -2.25996,-0.51204 -0.76821,0.45567 -1.00829,1.43174 -0.5335,2.16905 0.47477,0.7373 1.49175,0.96772 2.25996,0.51204 0.76821,-0.45567 1.00829,-1.43174 0.5335,-2.16905 z m 55.05703,-6.78456 c -0.67995,-3.3886 -4.77047,-2.78651 -5.29971,0.78006 -0.37224,2.50864 0.11532,2.93036 2.65193,2.29372 1.85289,-0.46505 2.92215,-1.70636 2.64778,-3.07378 z m -41.9362,-3.64227 c -0.12549,-1.35253 1.03571,-3.67223 2.58051,-5.15488 1.54479,-1.48267 2.80871,-4.21714 2.80871,-6.07663 0,-2.35094 0.78591,-3.32101 2.5798,-3.18432 4.39747,0.33506 4.18051,-5.85582 -0.27347,-7.80355 -2.08635,-0.91235 -4.28823,-1.14976 -4.89308,-0.52756 -0.60482,0.6222 -0.27024,1.41559 0.74353,1.7631 2.51756,0.86295 2.32451,5.327 -0.3215,7.43465 -1.1906,0.94835 -2.05447,2.14084 -1.91971,2.64998 0.4577,1.72933 -2.00657,7.29435 -3.23006,7.29435 -1.67973,0 -3.21201,4.19852 -2.1399,5.86344 1.36678,2.12254 4.31949,0.48202 4.06517,-2.25861 z m 136.14112,-1.00691 c -1.2877,-0.69163 -1.99183,-2.13156 -1.5647,-3.19983 0.42711,-1.06826 0.0678,-2.36273 -0.79854,-2.87661 -0.9212,-0.54642 -1.5751,0.26875 -1.5751,1.96356 0,3.47047 4.86402,9.44637 5.70885,7.01386 0.31392,-0.9039 -0.4828,-2.20933 -1.77051,-2.90098 z m 11.79048,2.37794 c 0,-1.58988 -0.4779,-1.71976 -1.96611,-0.53434 -1.08135,0.86131 -1.9661,1.8065 -1.9661,2.10038 0,0.29389 0.88475,0.53434 1.9661,0.53434 1.08136,0 1.96611,-0.94519 1.96611,-2.10041 z m -138.11865,-1.55569 c 0,-2.49924 -3.17441,-2.06399 -4.0858,0.5602 -0.32103,0.92433 0.46694,1.68061 1.75106,1.68061 1.2841,0 2.33474,-1.00836 2.33474,-2.24081 z m 136.22366,-1.37083 c 0.57374,-1.435 0.28598,-1.84512 -0.83012,-1.18308 -1.11545,0.66164 -1.40406,0.25241 -0.83164,-1.17928 0.48215,-1.20592 0.0103,-3.3802 -1.0494,-4.83174 -1.9372,-2.65447 -2.27521,-3.57221 -2.27521,-6.17731 0,-0.77839 -0.70273,-1.41525 -1.56161,-1.41525 -0.85888,0 -1.15149,0.63686 -0.65026,1.41525 0.50124,0.77839 0.1639,1.41526 -0.74963,1.41526 -0.99078,0 -1.2827,-1.14385 -0.72351,-2.83486 0.571,-1.72666 0.0282,-3.70761 -1.38876,-5.06748 -1.27941,-1.22795 -1.88582,-2.91656 -1.34754,-3.75246 0.55223,-0.85759 0.29176,-1.11237 -0.59779,-0.58472 -0.86707,0.51432 -1.85617,0.45351 -2.19802,-0.13515 -2.18227,-3.75764 4.96183,14.30152 8.3945,21.21999 2.83982,5.72359 4.42495,6.57246 5.80899,3.11082 z m -131.79993,-7.00276 c 0,-2.72437 -0.66356,-4.95339 -1.47458,-4.95339 -0.81102,0 -1.47457,2.22902 -1.47457,4.95339 0,2.72436 0.66355,4.95339 1.47457,4.95339 0.81102,0 1.47458,-2.22903 1.47458,-4.95339 z m 1.47457,-24.85048 c 0,-2.28923 -0.59257,-4.16223 -1.31681,-4.16223 -1.90297,0 -3.22414,4.00917 -1.63234,4.95339 0.74018,0.43905 0.93021,1.83765 0.42231,3.10799 -0.61731,1.54395 -0.35151,1.97045 0.80168,1.28641 0.94884,-0.56283 1.72516,-2.89633 1.72516,-5.18556 z m 8.84746,-9.20866 c 0,-2.2242 -3.27655,-6.24845 -4.49771,-5.52409 -0.77033,0.45693 -1.40059,0.11875 -1.40059,-0.75152 0,-0.87027 -0.7344,-1.14668 -1.63201,-0.61425 -0.95819,0.56837 -1.06598,1.33327 -0.26108,1.8526 0.75401,0.48649 1.79936,1.99905 2.32301,3.36123 0.85529,2.22488 5.46838,3.63876 5.46838,1.67603 z m 98.74972,-0.9684 c -0.0535,-2.01738 -3.48864,-6.72246 -4.90804,-6.72246 -1.25036,0 -1.21702,6.34187 0.0397,7.54802 1.66319,1.59629 4.91792,1.04436 4.86836,-0.82556 z m -90.88781,-6.91177 c -0.38031,-2.31603 0.004,-4.05645 0.89702,-4.05645 0.8597,0 1.56311,0.95529 1.56311,2.12288 0,1.16758 0.66356,2.12288 1.47457,2.12288 0.81102,0 1.47458,-2.3564 1.47458,-5.23644 0,-4.07279 -0.39323,-4.85904 -1.76949,-3.53814 -2.18711,2.09912 -7.07797,2.237 -7.07797,0.19953 0,-0.82433 -0.66356,-1.10518 -1.47458,-0.6241 -1.86278,1.10494 -1.9518,10.6144 -0.0994,10.6144 0.75637,0 1.82424,1.35788 2.37308,3.01751 1.4132,4.27349 3.4997,0.61917 2.63905,-4.62207 z m 79.13809,5.1427 c 0,-1.16759 -0.66356,-2.12288 -1.47457,-2.12288 -0.81102,0 -1.47458,0.95529 -1.47458,2.12288 0,1.16758 0.66356,2.12288 1.47458,2.12288 0.81101,0 1.47457,-0.9553 1.47457,-2.12288 z m 12.5339,-3.53814 c 0.50124,-0.77839 0.20862,-1.41525 -0.65026,-1.41525 -0.85888,0 -1.5616,0.63686 -1.5616,1.41525 0,0.77839 0.29261,1.41526 0.65025,1.41526 0.35765,0 1.06037,-0.63687 1.56161,-1.41526 z m -6.63559,-9.03409 c 0,-5.01334 -0.56583,-6.34559 -2.94916,-6.94377 -2.1537,-0.54055 -2.94915,-0.0435 -2.94915,1.84312 0,2.20261 4.4384,11.2688 5.52966,11.29529 0.20276,0.004 0.36865,-2.78267 0.36865,-6.19464 z m -3.56413,-2.098 c -0.6352,-0.98643 -0.75669,-2.17571 -0.26998,-2.64286 1.3197,-1.2666 2.7586,0.59625 2.04581,2.64858 -0.49946,1.43814 -0.8468,1.43702 -1.77583,-0.006 z m -79.68188,-9.43999 c 0.0522,-2.58923 -0.3682,-3.00706 -1.84322,-1.83214 -1.40639,1.12023 -1.91673,1.00927 -1.93335,-0.42037 -0.018,-1.54352 -0.3054,-1.51309 -1.39998,0.1482 -0.9428,1.43094 -0.62834,2.88497 0.9966,4.60825 2.77925,2.94751 4.08593,2.16476 4.17995,-2.50394 z m 77.7876,-0.70309 c 0.41721,-1.53128 0.15714,-2.78415 -0.57795,-2.78415 -0.73509,0 -1.4135,1.43295 -1.50757,3.18432 -0.12874,2.39627 -0.33795,2.57139 -0.84542,0.70763 -0.81581,-2.99623 -4.32044,-3.21769 -7.19903,-0.4549 -2.94833,2.82971 -2.675,3.38254 1.94855,3.94114 4.76704,0.57594 7.13506,-0.75375 8.18142,-4.59404 z m -73.44334,-9.44061 -1.10323,-5.3732 -1.42505,3.93953 c -1.01601,2.80874 -0.90146,4.54505 0.39905,6.04904 2.65623,3.07179 3.38376,1.49478 2.12923,-4.61537 z m 49.88419,-2.24361 c 4.25936,-4.46989 7.12146,-12.328741 4.48997,-12.328741 -2.12578,0 -7.90963,8.018721 -7.91129,10.968221 -10e-4,3.62114 0.91839,3.98717 3.42132,1.36052 z m 16.25345,-4.89866 c -2.87908,-6.667783 -2.92379,-6.706547 -3.84325,-3.33201 -0.77834,2.85666 2.44728,8.63922 4.81912,8.63922 0.72365,0 0.28451,-2.38825 -0.97587,-5.30721 z m -44.7912,-1.76906 c 1.47502,0 3.56268,-12.665157 2.28913,-13.887455 -1.46065,-1.401895 -3.66945,2.882009 -3.6943,7.164993 -0.0118,2.140572 -0.61515,3.891949 -1.33939,3.891949 -0.72425,0 -1.72711,1.026203 -2.22858,2.280453 -0.66735,1.66911 -0.282,2.04851 1.43742,1.41526 1.29205,-0.47587 2.88313,-0.8652 3.53572,-0.8652 z m -17.79168,-4.855331 c -0.38793,-0.372325 -1.58381,0.727016 -2.65752,2.443001 -1.86522,2.98096 -1.8338,3.01112 0.70533,0.67695 1.46165,-1.343652 2.34012,-2.747626 1.95219,-3.119951 z m 8.86483,-6.466707 c -0.0548,-1.437304 -0.5274,-1.208783 -1.46316,0.707627 -1.12468,2.303326 -1.29027,1.973827 -0.88902,-1.769068 0.59177,-5.520505 -0.82959,-5.952681 -3.19439,-0.971275 -0.94736,1.995565 -1.10164,3.260038 -0.34286,2.809959 0.75878,-0.450093 1.83169,0.548779 2.38426,2.219713 0.78838,2.384067 1.28251,2.616975 2.29544,1.08199 0.70994,-1.075833 1.25432,-2.911361 1.20973,-4.078946 z m 41.94761,-4.95339 c 0.46682,-1.167585 0.20603,-2.122881 -0.57952,-2.122881 -0.78557,0 -1.42831,0.955296 -1.42831,2.122881 0,1.167585 0.2608,2.122881 0.57953,2.122881 0.31874,0 0.96147,-0.955296 1.4283,-2.122881 z m -34.38319,-3.643061 c 0.6394,-2.483409 1.77249,-3.339943 4.09576,-3.096082 3.82423,0.401411 3.88326,0.06088 0.93714,-5.407072 -2.13272,-3.958318 -5.09821,-4.512405 -5.09821,-0.952577 0,0.87688 -1.38976,3.014139 -3.08834,4.749462 -2.13165,2.177755 -2.77807,4.093382 -2.08673,6.18395 1.26313,3.819685 4.08105,3.02509 5.24038,-1.477681 z m 28.85386,-2.115787 c -0.42539,-1.063921 -0.16783,-2.293626 0.57235,-2.732677 0.74018,-0.439052 0.90763,-1.892392 0.37214,-3.229646 -0.8106,-2.024214 -1.1456,-1.838875 -2.00048,1.106765 -1.60083,5.515923 -1.49398,8.761296 0.25429,7.724267 0.86631,-0.513867 1.22707,-1.804786 0.8017,-2.868709 z M 289.88725,64.471139 c -3.27033,-6.152477 -5.09229,-7.136459 -6.53457,-3.529123 -2.52636,6.318746 -0.29829,11.036781 5.74054,12.155828 4.12405,0.76422 4.36932,-1.90049 0.79403,-8.626705 z m 8.79072,-0.814364 c -1.04216,-1.205207 -2.22661,-1.872851 -2.63212,-1.483656 -0.40551,0.389195 0.11531,1.693704 1.15754,2.89891 1.04216,1.205207 2.22661,1.872851 2.63212,1.483656 0.40551,-0.389195 -0.11531,-1.693704 -1.15754,-2.89891 z m -4.64474,-9.287606 c 0.58281,-1.692378 0.31047,-1.725438 -1.61978,-0.196638 -2.70324,2.141021 -4.84338,0.04622 -3.46779,-3.394322 0.52753,-1.319423 0.23688,-1.764292 -0.7646,-1.170249 -1.09009,0.646615 -1.29301,-0.135115 -0.6238,-2.403191 0.76143,-2.58059 0.63467,-2.868361 -0.54564,-1.238672 -1.60991,2.222835 -0.82955,6.513225 1.74609,9.600101 1.81588,2.176298 4.30862,1.610688 5.27552,-1.197029 z"
       style="fill:#668ee9;stroke-width:1.44461071" />
    <path
       inkscape:connector-curvature="0"
       id="path3719"
       d="m 90.762712,400.08296 c 0,-0.38814 4.232027,-8.41675 9.404498,-17.84137 5.17248,-9.42462 14.55628,-26.68864 20.8529,-38.36448 6.29661,-11.67585 11.91925,-21.86568 12.49475,-22.64407 0.57549,-0.77839 8.22925,-14.78941 17.00834,-31.13559 15.00778,-27.94363 23.06668,-41.8204 20.54765,-35.38136 -0.60903,1.55678 -1.15359,3.89826 -1.21016,5.2033 -0.0565,1.30503 -0.73696,1.99664 -1.512,1.53691 -0.79652,-0.47247 -1.00769,0.1683 -0.48571,1.47383 0.50791,1.27034 0.23108,2.72043 -0.61516,3.22239 -0.84626,0.50198 -1.23317,2.03379 -0.85983,3.40405 0.47552,1.74523 -0.038,2.33267 -1.71475,1.96148 -1.73143,-0.38333 -3.94641,2.4973 -8.00695,10.41321 -3.22202,6.28127 -4.94953,11.15552 -4.05509,11.44167 1.91723,0.61337 2.08296,4.50841 0.19183,4.50841 -0.75155,0 -1.61995,-1.11451 -1.92978,-2.47669 -0.37882,-1.66543 -1.70599,-0.15879 -4.05172,4.59958 -3.2933,6.68056 -4.18467,9.48326 -4.81371,15.13557 -0.17126,1.53888 -0.83519,1.94564 -1.85278,1.13509 -1.05358,-0.83921 -3.42318,2.15602 -7.05976,8.92373 -3.01063,5.60283 -6.37287,11.77912 -7.47165,13.7251 -5.45082,9.65357 -6.84397,12.65093 -6.84397,14.72471 0,1.24209 -0.70827,2.25834 -1.57394,2.25834 -0.92571,0 -1.18958,1.31148 -0.6407,3.18432 0.61314,2.09208 0.47789,2.55726 -0.39431,1.35622 -1.69849,-2.33887 -12.9127,18.58416 -11.30161,21.08607 0.67601,1.04982 0.47191,1.33092 -0.53338,0.73462 -0.89564,-0.53126 -2.34863,0.32564 -3.22887,1.90421 -0.88024,1.57859 -1.07943,2.8799 -0.44263,2.89182 0.6368,0.0113 0.42095,0.48956 -0.47966,1.06144 -0.900604,0.57187 -2.742432,3.10958 -4.092948,5.63935 -2.376228,4.45111 -2.359071,4.59957 0.531538,4.59957 4.77436,0 3.43965,2.10722 -1.440071,2.27358 -2.431202,0.0829 -4.420367,-0.16687 -4.420367,-0.55501 z m 310.342878,-6.11137 c -20.20686,-19.94692 -49.97436,-38.17237 -83.25813,-50.97562 -7.70466,-2.96374 -13.16584,-5.41087 -12.13596,-5.43807 1.02989,-0.0272 6.00659,1.58834 11.05933,3.59006 5.05273,2.00173 11.29994,3.71893 13.88267,3.81601 2.58272,0.0971 4.5734,0.79262 4.42373,1.54568 -0.3774,1.89872 11.08793,8.10175 13.44428,7.27368 1.15012,-0.40416 1.50533,-0.031 0.88598,0.9308 -0.71452,1.10963 0.0989,1.33258 2.63415,0.72188 2.29878,-0.55375 4.72021,-0.0733 6.48689,1.28693 2.66377,2.05102 2.62937,2.08198 -0.62517,0.5625 -1.89424,-0.88441 -3.77016,-1.29503 -4.16873,-0.91252 -0.9863,0.94664 16.54061,12.27114 18.99203,12.27114 1.07594,0 5.15878,2.82193 9.07295,6.27097 4.48989,3.95633 8.0158,5.99656 9.55261,5.52752 1.70845,-0.52144 1.89175,-0.36541 0.61377,0.5225 -1.31792,0.91565 0.10676,2.81284 5.14861,6.85595 3.83392,3.0745 7.45012,5.43843 8.03603,5.25317 0.58589,-0.18527 0.72276,0.5198 0.30416,1.5668 -0.46815,1.17088 1.01234,2.60867 3.84621,3.73528 3.50634,1.39394 11.96909,1.63882 35.41385,1.02479 16.94358,-0.44377 31.47369,-1.20261 32.28914,-1.68632 1.63211,-0.96812 -4.97472,-16.71376 -7.34831,-17.51275 -1.80229,-0.60669 -1.83034,-3.06639 -0.035,-3.06639 1.39708,0 8.38421,13.59776 9.83201,19.13422 0.77151,2.95028 0.23802,3.10593 -13.67664,3.99024 -7.96371,0.50612 -24.12603,0.92351 -35.91625,0.92754 l -21.43679,0.007 z m -288.22423,4.8367 c 23.34875,-1.01577 48.66597,-1.06263 48.66359,-0.09 -0.001,0.58379 -13.10787,0.9367 -29.12546,0.78425 -16.01758,-0.15253 -24.80974,-0.4649 -19.53813,-0.69424 z m 51.33368,-1.41067 c 1.06446,-0.40883 2.33628,-0.35856 2.82628,0.11166 0.48999,0.47028 -0.38094,0.80477 -1.93538,0.74332 -1.71781,-0.0679 -2.06721,-0.40326 -0.8909,-0.85504 z m 3.22564,-2.22172 c 0,-1.26289 3.43613,-8.67315 4.42777,-9.54879 2.69336,-2.37831 5.85619,-8.82096 4.99042,-10.16542 -0.62674,-0.9733 -0.36351,-1.20075 0.67601,-0.58413 0.96918,0.57489 1.70241,0.17794 1.70241,-0.92163 0,-1.06231 1.63244,-4.05509 3.62765,-6.65065 2.73174,-3.55372 3.278,-5.34623 2.21186,-7.25819 -1.9277,-3.45702 -1.71753,-5.49391 0.23449,-2.27251 1.50907,2.49042 1.63339,2.49042 3.76582,0 1.21288,-1.41649 0.42173,0.60888 -1.75814,4.50083 -2.17985,3.89195 -6.9572,12.48962 -10.61633,19.10593 -6.34401,11.47103 -9.26196,15.81697 -9.26196,13.79456 z m -60.14712,-11.52893 c 1.04574,-1.08908 2.13369,-1.76832 2.41766,-1.50941 0.87464,0.79743 -1.34207,3.48955 -2.87333,3.48955 -0.79513,0 -0.59008,-0.89106 0.45567,-1.98014 z m 287.34828,-3.09119 c 0.0708,-1.6487 0.42017,-1.98404 0.89088,-0.85505 0.42596,1.02163 0.37359,2.2423 -0.11634,2.71257 -0.48999,0.47028 -0.8385,-0.36561 -0.77448,-1.85752 z m -284.40095,-2.05646 c -1.52868,-2.34932 -1.50731,-3.38627 0.11559,-5.61008 1.81341,-2.48485 1.98785,-2.22792 1.95676,2.88202 -0.0188,3.08555 -0.0708,5.61008 -0.1156,5.61008 -0.0448,0 -0.92534,-1.29691 -1.95675,-2.88202 z m 279.46758,-1.53936 c 1.00026,-0.96721 2.1901,-1.40205 2.64411,-0.96631 0.454,0.43575 -0.36439,1.2271 -1.81864,1.75857 -2.10157,0.76803 -2.27094,0.60547 -0.82547,-0.79226 z m 76.05866,-5.83921 c -1.40956,-2.52977 -4.4164,-8.26034 -6.68185,-12.7346 -2.26545,-4.47427 -4.86172,-7.97702 -5.76952,-7.7839 -0.90778,0.19311 -1.94986,-0.60417 -2.31573,-1.77175 -0.59132,-1.887 -0.49142,-1.887 0.89903,0 2.24053,3.04067 1.97661,-0.41241 -0.36221,-4.73914 -1.49857,-2.77228 -2.38308,-3.25254 -3.68644,-2.00161 -1.30336,1.25093 -1.71482,1.21831 -1.71482,-0.136 0,-0.98648 -0.7599,-1.33108 -1.70241,-0.77201 -1.03088,0.61149 -1.30308,0.38969 -0.69006,-0.56229 0.55679,-0.86467 1.98643,-1.21336 3.17699,-0.77488 2.5503,0.93927 2.86897,-1.09401 0.52417,-3.34448 -0.90225,-0.86596 -1.39595,-2.27851 -1.0971,-3.139 0.29885,-0.86049 5.67924,8.31831 11.95643,20.39735 6.27716,12.07904 11.10103,21.96189 10.71969,21.96189 -0.38132,0 -1.84661,-2.06981 -3.25617,-4.59958 z m -7.83493,0.35381 c 0.86809,-1.55678 1.91013,-2.83051 2.31563,-2.83051 0.40551,0 0.027,1.27373 -0.84105,2.83051 -0.86808,1.55678 -1.91012,2.83051 -2.31563,2.83051 -0.40551,0 -0.027,-1.27373 0.84105,-2.83051 z m 2.94916,1.49879 c 0,-0.73245 0.65596,-1.72084 1.45769,-2.19639 0.83588,-0.49582 1.08308,0.0723 0.57952,1.33172 -0.98028,2.45182 -2.03721,2.90041 -2.03721,0.86467 z m -4.53331,-6.80599 c -0.0603,-0.58379 -0.40705,-2.61494 -0.77063,-4.51364 -0.36358,-1.89871 -0.28509,-3.09136 0.17442,-2.65033 1.14666,1.10053 2.42165,8.22541 1.47192,8.22541 -0.42138,0 -0.81544,-0.47765 -0.87571,-1.06144 z m -86.89042,-0.91002 c 0,-0.30592 1.0298,-0.93549 2.28845,-1.39905 1.31226,-0.4833 1.90415,-0.24604 1.38755,0.55621 -0.86596,1.34479 -3.676,1.98907 -3.676,0.84284 z M 194.00082,349.35577 c -0.0103,-0.87868 2.28804,-5.33673 5.10624,-9.90678 7.10054,-11.51435 8.6645,-13.52758 5.35551,-6.89392 -4.46688,8.95492 -10.4423,18.55094 -10.46175,16.8007 z m -4.39319,-7.21715 c -1.93251,-2.0887 -1.88026,-2.2341 0.48923,-1.36142 1.45905,0.53736 2.93033,0.97703 3.26951,0.97703 0.33917,0 0.61668,0.63686 0.61668,1.41525 0,2.08218 -1.91198,1.63172 -4.37542,-1.03086 z m -55.96579,-4.04046 c 0.0708,-1.6487 0.42016,-1.98405 0.89089,-0.85506 0.42596,1.02163 0.37357,2.2423 -0.11642,2.71258 -0.48999,0.47027 -0.8385,-0.36562 -0.77448,-1.85752 z m 153.9768,-5.59231 c -8.11016,-2.58935 -13.68841,-4.75207 -12.39609,-4.80603 1.29231,-0.0539 6.22476,1.18145 10.96098,2.74541 4.73622,1.56394 9.98269,2.47751 11.65881,2.03016 2.44501,-0.65256 2.61021,-0.51952 0.83563,0.67293 -1.91916,1.28961 -1.88189,1.48916 0.28161,1.50797 1.37142,0.0113 2.90359,0.65853 3.40483,1.43692 0.50124,0.77839 0.70629,1.34895 0.45567,1.2679 -0.25062,-0.081 -7.09127,-2.26591 -15.20144,-4.85526 z m 152.44514,-10.21137 c -2.64755,-4.47574 -5.35047,-8.35 -6.00654,-8.60946 -0.65606,-0.25947 -1.19283,-1.25128 -1.19283,-2.20403 0,-2.73475 -10.29226,-21.62855 -10.49211,-19.26066 -0.0985,1.16758 -0.0842,2.64787 0.032,3.28952 0.1162,0.64164 -0.40655,0.80022 -1.16152,0.35239 -0.75498,-0.44782 -1.02461,-2.09174 -0.59916,-3.65315 0.98854,-3.62813 -2.37885,-11.56451 -4.3985,-10.36651 -0.87621,0.51974 -1.09042,0.22367 -0.50075,-0.69206 0.56679,-0.8802 0.0323,-3.36685 -1.1877,-5.52587 -1.22004,-2.15903 -2.24481,-3.09184 -2.27728,-2.07291 -0.0324,1.01892 -0.79369,1.41681 -1.69159,0.88421 -1.10065,-0.65287 -1.33834,0.1268 -0.72951,2.39316 l 0.90303,3.36156 -1.75748,-3.29142 c -1.3989,-2.61989 -1.3563,-3.52939 0.20886,-4.45779 1.62007,-0.96097 1.55783,-2.12593 -0.35344,-6.61535 -1.27588,-2.99696 -2.89007,-5.33527 -3.58708,-5.19628 -0.69704,0.13898 -1.3136,-0.81629 -1.37015,-2.12288 -0.0566,-1.30658 -0.59402,-3.64933 -1.19435,-5.20611 -2.06146,-5.34576 6.2301,8.92742 19.84915,34.16856 7.49967,13.89967 15.93004,29.25252 18.73417,34.11745 2.80414,4.86494 4.75824,8.84534 4.34245,8.84534 -0.41578,0 -2.92214,-3.66197 -5.56966,-8.13771 z m -90.90321,4.53735 c -1.04972,-1.80031 -6.19139,-2.33485 -29.19615,-3.03534 -29.80843,-0.90766 -52.72355,0.29204 -49.15367,2.57337 2.02126,1.29169 -1.64026,0.72441 -10.47177,-1.62238 -6.91535,-1.83759 34.24204,-3.22475 61.93221,-2.08734 15.00381,0.61631 30.09979,1.1842 33.54661,1.26198 8.004,0.18063 8.26315,2.26431 0.28161,2.26431 -3.61472,0 -5.62437,0.56054 -5.07399,1.41525 0.50124,0.77839 0.57338,1.41526 0.16031,1.41526 -0.41308,0 -1.32439,-0.98331 -2.02516,-2.18511 z m 14.12227,1.21833 c 1.06445,-0.40882 2.33627,-0.35855 2.82628,0.11167 0.48998,0.47027 -0.38095,0.80477 -1.93539,0.74332 -1.7178,-0.0679 -2.0672,-0.40327 -0.89089,-0.85504 z m -31.05826,-1.38577 c 1.01377,-0.39261 2.67267,-0.39261 3.68644,0 1.01377,0.3926 0.18432,0.71384 -1.84322,0.71384 -2.02755,0 -2.85699,-0.32124 -1.84322,-0.71384 z m -124.97034,-1.32711 c 0,-0.77839 0.76815,-2.15251 1.707,-3.05358 1.24659,-1.19645 1.26934,-2.14445 0.0843,-3.51484 -1.12997,-1.30677 -1.15831,-2.50666 -0.0933,-3.95193 1.28507,-1.74392 1.40558,-1.70193 0.75454,0.26291 -1.76415,5.32427 1.27237,3.54245 5.19399,-3.04781 2.31534,-3.89093 4.56056,-7.07441 4.98935,-7.07441 0.83232,0 -9.30089,18.19131 -11.39162,20.45042 -0.78035,0.84322 -1.24426,0.81683 -1.24426,-0.0708 z M 362.727,320.85756 c -0.86329,-0.57188 -6.97633,-11.03455 -13.58454,-23.25039 -13.51403,-24.98189 -45.35917,-80.37867 -54.55473,-94.90167 -3.32678,-5.25413 -5.40494,-9.55297 -4.61814,-9.55297 0.78679,0 1.90682,1.12916 2.48894,2.50925 1.9204,4.55276 11.1832,19.41792 12.39949,19.89894 0.65605,0.25947 1.19283,1.47269 1.19283,2.69605 0,1.88244 0.50991,1.80994 3.31779,-0.47175 l 3.3178,-2.69605 -2.89052,3.27073 c -1.6947,1.91761 -2.30474,3.6741 -1.47458,4.24576 0.77877,0.53627 4.05012,5.94877 7.26966,12.02776 5.20105,9.8204 6.0642,10.77644 7.74153,8.57485 1.03829,-1.36284 1.88781,-1.84667 1.88781,-1.07519 0,0.77149 -0.76219,2.13423 -1.69377,3.02834 -1.78704,1.71514 1.46956,7.97381 5.73287,11.01768 1.12687,0.80454 2.25498,3.2652 2.50694,5.46813 0.25196,2.20293 1.05844,4.41056 1.79219,4.90584 0.73375,0.49528 4.81555,7.47434 9.07069,15.50902 4.25514,8.03468 9.27711,15.99548 11.1599,17.69068 1.88282,1.69519 3.17064,3.78178 2.86186,4.63685 -0.64667,1.79074 1.26883,6.36624 5.42212,12.95167 3.0778,4.88014 3.12911,5.15617 0.65386,3.51647 z m 60.67592,-18.05535 c -0.55224,-2.11178 -0.64001,-4.18904 -0.19503,-4.61612 0.44499,-0.42707 0.80906,0.23188 0.80906,1.46432 0,1.23245 0.6423,2.45311 1.42732,2.71258 0.813,0.2687 0.89694,1.29104 0.19502,2.37529 -0.89857,1.38804 -1.50421,0.86372 -2.23637,-1.93607 z m -202.36209,-2.51999 c 0.1221,-1.94948 0.83231,-3.18272 1.5784,-2.74054 0.75056,0.44486 0.92278,-0.28084 0.38553,-1.62455 -0.53403,-1.3357 -0.44467,-2.11637 0.1986,-1.73481 0.64325,0.38157 2.77837,-2.13281 4.74468,-5.58751 1.96631,-3.45469 4.07408,-6.28126 4.68394,-6.28126 1.02795,0 -8.26772,17.61279 -10.71898,20.30956 -0.60172,0.662 -0.9942,-0.3914 -0.87217,-2.34089 z m -3.41939,-4.52376 c 0,-0.77839 0.64322,-2.37055 1.42941,-3.53813 0.78618,-1.16759 1.42941,-1.48602 1.42941,-0.70763 0,0.77839 -0.64323,2.37055 -1.42941,3.53814 -0.78619,1.16758 -1.42941,1.48601 -1.42941,0.70762 z m 6.59042,-10.6144 c -0.50123,-0.77839 -0.20862,-1.41526 0.65026,-1.41526 0.85889,0 1.56161,0.63687 1.56161,1.41526 0,0.77839 -0.29262,1.41525 -0.65026,1.41525 -0.35764,0 -1.06037,-0.63686 -1.56161,-1.41525 z m 10.4878,-7.82807 c 1.34507,-1.97026 2.73346,-3.30601 3.08531,-2.96833 0.87472,0.83953 -2.94138,6.55063 -4.37706,6.55063 -0.63463,0 -0.0534,-1.61203 1.29175,-3.5823 z m -66.29953,-6.98677 c -0.45686,-1.14266 -0.19608,-2.45398 0.57952,-2.91404 0.7756,-0.46007 1.41018,0.47483 1.41018,2.07755 0,3.41723 -0.82003,3.76197 -1.9897,0.83649 z m 69.82021,1.79349 c 0,-1.1416 12.03961,-22.80949 13.21054,-23.77526 0.47188,-0.3892 1.68243,-2.29979 2.69011,-4.24576 1.00768,-1.94598 3.8485,-6.72246 6.31293,-10.61441 2.46441,-3.89195 6.21662,-10.57903 8.33821,-14.86017 2.12159,-4.28114 4.42761,-8.00186 5.12446,-8.26827 2.08569,-0.79732 7.04332,-11.10626 5.91734,-12.30457 -0.5735,-0.61037 -0.16863,-0.62516 0.89973,-0.0328 1.28638,0.71319 2.21607,0.0727 2.75249,-1.89597 0.44551,-1.6351 1.46135,-2.97291 2.25741,-2.97291 0.79608,0 0.0382,2.06981 -1.68417,4.59957 -1.72236,2.52977 -11.83175,19.24746 -22.4653,37.15043 -19.2731,32.44876 -23.35375,38.95232 -23.35375,37.22016 z m -62.81054,-20.3947 c 0.66864,-1.67234 0.28239,-2.04865 -1.44843,-1.41119 -1.47643,0.54377 1.36061,-5.88898 7.57661,-17.17929 5.46525,-9.92671 16.18833,-29.51211 23.82907,-43.52313 7.64073,-14.01102 14.54821,-26.11144 15.34995,-26.88983 1.9259,-1.86979 0.006,3.1742 -2.82397,7.41916 -1.16358,1.74536 -1.73474,4.12597 -1.26925,5.29022 0.4655,1.16426 0.18723,1.96526 -0.61837,1.77999 -1.62397,-0.37344 -16.12405,24.87217 -16.12405,28.07304 0,1.10996 -0.53536,2.0181 -1.18971,2.0181 -0.65433,0 -3.43676,4.45805 -6.18318,9.90678 -2.74641,5.44872 -5.4569,9.90677 -6.02331,9.90677 -1.08529,0 -2.89112,5.51961 -3.62932,11.09319 -0.24106,1.82012 -0.9278,3.73071 -1.52608,4.24576 -0.59828,0.51507 -0.6711,-0.17803 -0.16182,-1.54022 1.67839,-4.48931 -1.33419,-2.57783 -3.81892,2.42312 -1.46735,2.95326 -1.86875,5.23539 -1.01041,5.74454 0.78325,0.4646 1.4241,0.0641 1.4241,-0.88992 0,-0.95407 0.30546,-1.44148 0.67881,-1.08317 1.15092,1.10462 -0.93448,6.89653 -2.48313,6.89653 -0.8032,0 -1.05006,-1.0262 -0.54859,-2.28045 z m 152.36658,0.50808 c -0.47351,-1.18433 0.41855,-1.97949 2.37975,-2.12129 1.72546,-0.12468 2.48201,0.23007 1.68121,0.78846 -0.80078,0.55838 -1.87168,1.51296 -2.37975,2.12126 -0.50808,0.60831 -1.26461,0.25352 -1.68121,-0.78843 z m -82.92045,-2.47339 c -0.50124,-0.77839 -0.20862,-1.41525 0.65026,-1.41525 0.85888,0 1.56161,0.63686 1.56161,1.41525 0,0.77839 -0.29262,1.41526 -0.65026,1.41526 -0.35765,0 -1.06037,-0.63687 -1.56161,-1.41526 z m 151.95998,-0.95756 c 1.0161,-3.96864 -3.4344,-14.58316 -5.05759,-12.06244 -1.49559,2.32258 -6.08035,0.643 -6.08035,-2.22747 0,-1.21403 0.43206,-1.79266 0.96012,-1.28582 0.52808,0.50683 1.77898,-0.15328 2.77977,-1.46689 1.58685,-2.08284 2.51707,-1.05916 7.27149,8.00205 3.65515,6.96613 4.71429,10.11878 3.21382,9.56615 -1.23093,-0.45334 -2.60657,-0.064 -3.057,0.8653 -0.45042,0.92926 -0.46403,0.30336 -0.0302,-1.39088 z m -5.26221,-15.7552 c -0.0195,-2.06241 -0.22014,-2.09977 -1.452,-0.27029 -1.86623,2.77159 -1.86623,4.64512 0,3.53814 0.81101,-0.48108 1.46441,-1.95161 1.452,-3.26785 z m -72.72319,1.61671 c -0.54068,-0.51891 -0.96288,-1.95186 -0.93821,-3.18432 0.0369,-1.84025 0.32457,-1.77912 1.60974,0.34203 1.58779,2.62061 1.12747,4.56893 -0.67153,2.84229 z m -125.58475,-7.54802 c 0.50124,-0.77838 1.20397,-1.41525 1.56161,-1.41525 0.35764,0 0.65026,0.63687 0.65026,1.41525 0,0.77839 -0.70273,1.41526 -1.56161,1.41526 -0.85888,0 -1.15149,-0.63687 -0.65026,-1.41526 z m 190.50802,-8.34721 c -2.99678,-5.32512 -5.43936,-10.24272 -5.42795,-10.928 0.0118,-0.68529 2.69001,3.45405 5.95245,9.19852 3.26245,5.74447 5.70502,10.66207 5.42795,10.928 -0.27707,0.26592 -2.95569,-3.87341 -5.95245,-9.19852 z m -60.52315,6.26966 c -0.45685,-1.14266 -0.19607,-2.45398 0.57953,-2.91403 0.7756,-0.46007 1.41018,0.47483 1.41018,2.07755 0,3.41723 -0.82003,3.76197 -1.98971,0.83648 z m -121.8747,-18.3601 c 0,-1.12165 0.60167,-2.39625 1.33706,-2.83246 0.73539,-0.43621 0.98976,0.48149 0.56531,2.03935 -0.90039,3.3046 -1.90237,3.72233 -1.90237,0.79311 z m 173.43231,-4.2795 c -1.30981,-1.91859 -2.38146,-4.10212 -2.38146,-4.8523 0,-0.75017 -0.82945,-2.20554 -1.84322,-3.23411 -2.10472,-2.13548 -11.80376,-21.08718 -11.12522,-21.73842 0.24566,-0.23577 4.61771,7.16325 9.71569,16.44225 8.75102,15.92808 10.96972,21.19802 5.63421,13.38258 z M 361.1644,188.986 c -0.0997,-1.98955 0.12343,-2.81732 0.49555,-1.83948 0.37217,0.97784 1.38609,1.35709 2.25315,0.84277 0.98147,-0.58216 1.1409,-0.25869 0.42243,0.85704 -0.67164,1.04304 -0.31238,2.29141 0.85951,2.98654 1.48502,0.88086 1.24406,1.13874 -0.91798,0.98242 -2.04944,-0.14816 -2.98602,-1.30037 -3.11266,-3.82929 z m -149.48643,-0.78686 c 0,-1.16758 0.64273,-2.12288 1.4283,-2.12288 0.78555,0 1.04635,0.9553 0.57952,2.12288 -0.46683,1.16759 -1.10956,2.12289 -1.4283,2.12289 -0.31873,0 -0.57952,-0.9553 -0.57952,-2.12289 z m 4.42373,-4.86986 c 0,-0.73245 0.65596,-1.72083 1.45769,-2.19639 0.83588,-0.49582 1.08307,0.0723 0.57952,1.33173 -0.98028,2.45181 -2.03721,2.90041 -2.03721,0.86466 z m 137.13559,-7.24332 c 0,-0.82433 0.66356,-1.10518 1.47458,-0.6241 0.81101,0.48107 1.47457,1.15552 1.47457,1.49878 0,0.34325 -0.66356,0.6241 -1.47457,0.6241 -0.81102,0 -1.47458,-0.67446 -1.47458,-1.49878 z m 2.91957,-7.73458 c -1.02589,-1.18639 -1.49268,-2.51467 -1.0373,-2.95171 0.45536,-0.43706 1.56861,0.53363 2.47386,2.15707 1.93148,3.46379 1.21446,3.86042 -1.43656,0.79464 z m -6.36024,-1.61693 c -1.53976,-1.47779 -1.15076,-6.13276 0.51247,-6.13276 0.82255,0 -0.93771,-4.45805 -3.91167,-9.90678 -2.97397,-5.44873 -6.00857,-9.90678 -6.74357,-9.90678 -0.73501,0 -0.88729,-0.69741 -0.3384,-1.5498 0.54889,-0.85238 -0.2862,-3.24062 -1.85577,-5.30721 -2.41176,-3.17545 -4.60478,-7.15397 -5.58161,-10.12604 -1.34001,-4.07704 -4.44211,-8.22346 -5.62662,-7.52085 -0.86361,0.51227 -1.02905,0.17108 -0.39471,-0.81401 0.60064,-0.93275 0.43283,-2.4641 -0.37291,-3.40298 -1.87405,-2.18376 -9.16262,-17.9825 -8.29601,-17.9825 0.35897,0 2.21201,3.025106 4.11789,6.72246 1.90587,3.69735 9.89657,18.61041 17.75711,33.14013 9.47924,17.52179 13.7323,26.74959 12.63015,27.40337 -0.91398,0.54212 -1.33429,2.18754 -0.93406,3.65648 0.78071,2.86532 0.58656,3.21381 -0.96229,1.72727 z m -121.89831,-5.50866 c 0,-1.99192 0.60125,-3.26501 1.33614,-2.8291 0.73488,0.43592 0.98926,2.06565 0.56531,3.62167 -1.06103,3.89414 -1.90145,3.54384 -1.90145,-0.79257 z m -5.83927,-1.0482 c -0.0324,-0.62244 1.0033,-3.10342 2.30173,-5.51329 1.8225,-3.38254 2.65789,-3.93122 3.66386,-2.40641 0.71671,1.08633 1.30309,2.61202 1.30309,3.39041 0,0.77839 -0.58379,0.53048 -1.29729,-0.55092 -1.00633,-1.52516 -1.81488,-1.049 -3.60483,2.12288 -1.26913,2.24898 -2.33409,3.57978 -2.36656,2.95733 z m 118.02348,-3.23197 c 0.0708,-1.6487 0.42017,-1.98405 0.89088,-0.85506 0.42596,1.02163 0.37358,2.24229 -0.11634,2.71258 -0.49001,0.47027 -0.83851,-0.36562 -0.77448,-1.85752 z M 237.72801,131.29217 c 5.47255,-10.28232 10.16093,-18.49276 10.41863,-18.24544 0.62829,0.60301 -7.14038,16.14819 -10.46953,20.94965 -1.45777,2.10246 -2.27883,4.96835 -1.82459,6.36864 0.45426,1.4003 0.13404,3.50129 -0.7116,4.66887 -1.18073,1.63029 -1.32629,1.30189 -0.62727,-1.41525 0.96407,-3.74736 0.28305,-3.21614 -4.83232,3.76936 -1.04687,1.4296 2.57413,-5.81353 8.04668,-16.09583 z m 0.80283,14.59209 c 1.04576,-1.08908 2.1337,-1.76832 2.41767,-1.50941 0.87463,0.79744 -1.34207,3.48955 -2.87333,3.48955 -0.79513,0 -0.59008,-0.89106 0.45566,-1.98014 z m 92.09628,-14.53116 c -0.54068,-0.51892 -0.98305,-1.60159 -0.98305,-2.40594 0,-0.88679 0.68681,-0.80324 1.74491,0.21229 0.95971,0.92111 1.40208,2.00378 0.98305,2.40593 -0.41903,0.40218 -1.20424,0.30665 -1.74491,-0.21228 z m -4.56416,-6.94149 c -0.54238,-2.07407 -0.70177,-4.04397 -0.35418,-4.37758 0.34757,-0.33359 1.07572,1.09044 1.6181,3.16451 0.54237,2.07407 0.70176,4.04398 0.35417,4.37758 -0.34757,0.33359 -1.07571,-1.09044 -1.61809,-3.16451 z M 257.77067,94.202673 c 4.93828,-9.016344 9.79185,-17.557829 10.78573,-18.981073 1.6567,-2.372439 1.78875,-2.295432 1.58719,0.925632 -0.12092,1.932345 -0.67909,3.241251 -1.24037,2.90868 -1.2839,-0.760738 -6.35237,9.23257 -6.35237,12.52472 0,1.34711 -0.66356,2.506868 -1.47458,2.577234 -2.79913,0.242858 -3.96975,4.259095 -1.9597,6.723434 1.74505,2.13943 1.68831,2.19881 -0.51797,0.54214 -2.11304,-1.58664 -2.70983,-1.444109 -4.05508,0.9684 -0.86759,1.55588 -1.57742,4.0383 -1.57742,5.51652 0,1.47822 -0.93917,2.68768 -2.08705,2.68768 -1.40305,0 0.8556,-5.37273 6.89162,-16.393367 z m 59.27887,8.279437 c -0.53458,-0.83018 -0.65572,-1.81294 -0.26919,-2.18392 0.38652,-0.370983 1.0957,0.30825 1.57596,1.50941 0.99707,2.49383 0.14731,2.93249 -1.30677,0.67451 z m -4.16823,-8.094746 c -0.5228,-0.811875 -0.15814,-1.729625 0.81035,-2.039466 1.23367,-0.394686 0.96533,-1.596138 -0.89629,-4.012826 -2.3461,-3.045665 -2.57644,-3.110136 -1.96754,-0.550732 0.51541,2.166471 -0.0894,2.955079 -2.39374,3.121683 -1.73015,0.125108 -2.34725,-0.21543 -1.4061,-0.775885 3.17003,-1.887737 3.08629,-10.519491 -0.0907,-9.349413 -1.13449,0.417831 -2.49607,0.08671 -3.02574,-0.735833 -0.59722,-0.927443 -0.0444,-1.157174 1.45551,-0.604786 1.90827,0.702815 1.57644,-0.718893 -1.57284,-6.738668 -2.19525,-4.196175 -4.69722,-8.471438 -5.55995,-9.500584 -1.94522,-2.320487 -8.72235,-18.140008 -7.01894,-16.384009 0.67871,0.699673 5.37986,8.914506 10.44699,18.255184 5.06713,9.340678 10.49295,19.035625 12.05738,21.54433 1.98781,3.187662 2.43299,5.26684 1.47827,6.90419 -0.84353,1.446659 -1.72975,1.778253 -2.31666,0.866815 z m -47.83113,-3.840759 c 0.0301,-2.33517 0.36053,-3.119136 0.7344,-1.742136 0.37386,1.377 0.34928,3.287593 -0.0547,4.245763 -0.40393,0.958169 -0.70981,-0.168458 -0.67976,-2.503627 z m 10.80755,-28.80394 c 2.92304,-5.723099 5.62255,-10.110084 5.99892,-9.748856 0.83176,0.798311 -5.67718,13.390306 -8.95495,17.323983 -1.29722,1.556779 0.033,-1.852027 2.95603,-7.575127 z m 12.13285,-5.276937 c -0.49831,-0.478268 -0.56444,-1.723928 -0.14687,-2.768135 0.4175,-1.044207 0.0602,-3.051752 -0.79405,-4.461213 -0.85422,-1.409461 -1.57331,-1.766575 -1.59796,-0.793588 -0.0246,0.972988 -0.72545,1.769068 -1.55729,1.769068 -0.85766,0 -0.51128,-1.858154 0.80009,-4.292036 1.2719,-2.36062 3.01867,-3.873173 3.88173,-3.361228 1.0746,0.637422 1.01099,1.261931 -0.20185,1.981348 -1.33645,0.792746 -1.16337,2.178418 0.70535,5.646726 1.47108,2.730327 1.93659,5.114277 1.14667,5.872409 -0.73134,0.701925 -1.73743,0.884917 -2.23575,0.406649 z"
       style="fill:#5d8de6;stroke-width:1.44461071" />
    <path
       inkscape:connector-curvature="0"
       id="path3717"
       d="m 90.762712,400.08296 c 0,-0.38814 4.232027,-8.41675 9.404498,-17.84137 5.17248,-9.42462 14.55628,-26.68864 20.8529,-38.36448 6.29661,-11.67585 11.91925,-21.86568 12.49475,-22.64407 0.57549,-0.77839 8.22925,-14.78941 17.00834,-31.13559 14.9173,-27.77516 23.14509,-41.95596 20.52848,-35.38136 -0.61957,1.55678 -2.15256,5.85562 -3.40663,9.55297 -1.25406,3.69735 -3.01584,6.72246 -3.91508,6.72246 -0.89923,0 -3.07699,3.0251 -4.83946,6.72245 -1.76247,3.69735 -6.0859,11.82731 -9.60763,18.06659 -3.52172,6.23926 -6.14393,12.09046 -5.82711,13.00264 0.31681,0.91219 -0.7031,2.88617 -2.26645,4.38663 -4.55605,4.37276 -22.40966,36.72414 -22.40966,40.60712 0,1.17139 -0.54151,2.12982 -1.20335,2.12982 -2.0811,0 -13.89347,23.78443 -12.71855,25.60902 0.69297,1.07615 0.48882,1.35182 -0.54636,0.73779 -1.02302,-0.60683 -3.3653,2.2757 -6.147371,7.56523 -4.25068,8.08179 -4.333405,8.54558 -1.524238,8.54558 4.762879,0 3.412529,2.10759 -1.456712,2.27358 -2.431202,0.0829 -4.420367,-0.16687 -4.420367,-0.55501 z m 310.342878,-6.11137 c -20.20686,-19.94692 -49.97436,-38.17237 -83.25813,-50.97562 -7.70466,-2.96374 -13.16584,-5.41087 -12.13596,-5.43807 1.02989,-0.0272 5.80728,1.48508 10.61644,3.3606 4.80917,1.87551 10.76039,3.83512 13.22498,4.35464 2.46458,0.51954 4.90039,1.59581 5.41291,2.39171 0.5125,0.79591 4.66736,3.15171 9.233,5.23511 4.56564,2.08341 12.41201,6.47813 17.43636,9.76606 5.02436,3.28792 10.06515,5.97803 11.20177,5.97803 1.13662,0 4.37448,2.06981 7.19524,4.59958 13.15854,11.80106 28.19895,24.53312 30.34004,25.68355 2.91305,1.56523 65.1025,0.14957 66.84374,-1.52162 0.68597,-0.65838 -0.92409,-5.48846 -3.5779,-10.73352 -2.65381,-5.24506 -4.3359,-9.53646 -3.73799,-9.53646 1.18209,0 8.25237,14.162 9.55263,19.13422 0.77151,2.95028 0.23802,3.10593 -13.67664,3.99024 -7.96371,0.50612 -24.12603,0.92351 -35.91625,0.92754 l -21.43679,0.007 z m -288.22423,4.8367 c 23.34875,-1.01577 48.66597,-1.06263 48.66359,-0.09 -0.001,0.58379 -13.10787,0.9367 -29.12546,0.78425 -16.01758,-0.15253 -24.80974,-0.4649 -19.53813,-0.69424 z m 51.33368,-1.41067 c 1.06446,-0.40883 2.33628,-0.35856 2.82628,0.11166 0.48999,0.47028 -0.38094,0.80477 -1.93538,0.74332 -1.71781,-0.0679 -2.06721,-0.40326 -0.8909,-0.85504 z m 3.22564,-2.5598 c 0,-0.6942 2.65424,-5.55017 5.8983,-10.79107 3.24407,-5.2409 5.91039,-10.05444 5.92515,-10.69673 0.0236,-1.02737 4.11207,-7.36828 9.99715,-15.50486 1.05261,-1.45531 0.15443,0.5383 -1.99593,4.43025 -2.15036,3.89195 -6.90358,12.48962 -10.56271,19.10593 -6.65941,12.04133 -9.26196,15.82252 -9.26196,13.45648 z M 466.56607,372.536 c -7.504,-13.3349 -20.36399,-38.75711 -20.05524,-39.64611 0.20886,-0.60134 5.51559,8.78951 11.79278,20.86855 6.27716,12.07904 11.10734,21.96189 10.73372,21.96189 -0.37363,0 -1.4857,-1.43295 -2.47126,-3.18433 z m -5.68471,0.43735 c 0,-0.73245 0.65596,-1.72084 1.45769,-2.19639 0.83588,-0.49582 1.08308,0.0723 0.57952,1.33172 -0.98028,2.45182 -2.03721,2.90041 -2.03721,0.86467 z M 194.00082,349.35577 c -0.0103,-0.87868 2.28804,-5.33673 5.10624,-9.90678 7.10054,-11.51435 8.6645,-13.52758 5.35551,-6.89392 -4.46688,8.95492 -10.4423,18.55094 -10.46175,16.8007 z m 93.61782,-16.84992 c -8.11016,-2.58935 -13.75268,-4.75207 -12.53892,-4.80603 2.88042,-0.12808 25.39461,6.96196 27.21096,8.56913 1.74635,1.54524 2.80386,1.81647 -14.67204,-3.7631 z m 152.44514,-10.21137 c -2.64755,-4.47574 -5.35047,-8.35 -6.00654,-8.60946 -0.65606,-0.25947 -1.19283,-1.25128 -1.19283,-2.20403 0,-2.85213 -9.81943,-20.68654 -10.84685,-19.70045 -0.52237,0.50134 -0.94976,-0.20844 -0.94976,-1.57729 0,-1.36886 -4.31314,-10.35625 -9.58475,-19.972 -5.27161,-9.61573 -9.57675,-17.99565 -9.56698,-18.62204 0.0267,-1.70737 5.52585,7.8467 20.64075,35.86019 7.49967,13.89967 15.93004,29.25252 18.73417,34.11745 2.80414,4.86494 4.75824,8.84534 4.34245,8.84534 -0.41578,0 -2.92214,-3.66197 -5.56966,-8.13771 z m -176.77564,3.18432 -6.6356,-1.84499 7.09127,-0.13898 c 3.94656,-0.0773 6.72163,0.43506 6.25776,1.15543 -0.45843,0.7119 8e-5,1.61692 1.0189,2.01114 3.53066,1.36616 -1.12827,0.65358 -7.73233,-1.18264 z m -56.0339,0.41902 c 0,-1.34063 10.35455,-18.65393 12.10046,-20.23258 0.86087,-0.77839 -0.94963,3.0428 -4.02334,8.49153 -5.44359,9.64978 -8.07712,13.47793 -8.07712,11.74105 z m 141.14908,-0.57689 c -0.49598,-0.47602 -17.36144,-1.37582 -37.47882,-1.99958 l -36.57704,-1.13409 37.60169,0.73143 c 49.87492,0.97016 50.1356,0.98164 50.1356,2.2063 0,1.26522 -12.38257,1.44257 -13.68143,0.19594 z m 3.7877,-22.13847 c -11.12776,-21.06194 -43.28132,-77.28621 -55.03275,-96.2312 -4.70759,-7.5893 -7.929,-13.79873 -7.1587,-13.79873 0.7703,0 1.87684,1.12916 2.45896,2.50925 1.9204,4.55276 11.1832,19.41792 12.39949,19.89894 0.65605,0.25947 1.19283,1.32849 1.19283,2.3756 0,1.04714 0.82945,2.75182 1.84322,3.78823 1.01377,1.0364 5.16102,8.10948 9.2161,15.71794 4.05508,7.60846 9.20593,15.77008 11.44632,18.13692 2.2404,2.36684 3.67621,4.92023 3.19069,5.67419 -0.4855,0.75398 0.0714,2.7758 1.23745,4.49295 1.16611,1.71715 5.62635,9.49073 9.91163,17.27463 4.28528,7.78389 8.67721,14.65127 9.75982,15.26084 1.08262,0.60956 2.71336,3.79388 3.62385,7.07627 0.91049,3.28238 2.48818,6.92327 3.506,8.09085 2.38099,2.7314 3.99247,7.07807 2.62119,7.07019 -0.58281,-0.003 -5.18007,-7.80495 -10.2161,-17.33687 z m -131.6656,-0.11172 c 0,-1.98778 7.08525,-14.44026 10.20766,-17.94018 1.98113,-2.22068 1.13363,0.14039 -2.29079,6.38214 -5.42042,9.87978 -7.91687,13.5244 -7.91687,11.55804 z m 13.27119,-23.0467 c 0,-0.77839 0.97424,-2.6515 2.16497,-4.16245 1.19072,-1.51095 2.16496,-2.11033 2.16496,-1.33194 0,0.77839 -0.97424,2.65149 -2.16496,4.16245 -1.19073,1.51095 -2.16497,2.11033 -2.16497,1.33194 z m 4.42373,-7.90133 c 0,-1.1416 12.03961,-22.80949 13.21054,-23.77526 0.47188,-0.3892 1.68243,-2.29979 2.69011,-4.24576 1.00768,-1.94598 3.8485,-6.72246 6.31293,-10.61441 2.46441,-3.89195 6.19518,-10.50591 8.2906,-14.69771 2.0954,-4.19179 4.75671,-8.64984 5.91402,-9.90678 3.26594,-3.5471 9.29366,-12.87233 9.29366,-14.37785 0,-0.74382 0.72872,-1.35241 1.61938,-1.35241 0.89066,0 0.21018,2.06981 -1.51219,4.59958 -1.72236,2.52977 -11.83175,19.24746 -22.4653,37.15042 -19.2731,32.44878 -23.35375,38.95234 -23.35375,37.22018 z m -55.33645,-41.58734 c 11.32717,-20.75139 15.52289,-27.68973 15.52289,-25.66978 0,1.44361 -10.61015,21.39694 -11.83303,22.25304 -0.55593,0.3892 -1.82196,3.09587 -2.81341,6.01484 -0.99144,2.91896 -2.31393,5.3072 -2.93888,5.3072 -0.62494,0 -2.34762,2.57822 -3.82815,5.72939 -1.48055,3.15116 -3.35317,6.12164 -4.16142,6.60105 -0.80823,0.47943 3.71517,-8.62665 10.052,-20.23574 z m 216.72633,18.14422 c -0.85294,-0.57187 -2.57066,-3.58723 -3.81718,-6.70079 -1.2465,-3.11356 -2.8711,-5.55487 -3.61022,-5.42513 -0.73911,0.12978 -1.34384,-1.30322 -1.34384,-3.18432 0,-1.88112 0.15755,-3.42021 0.35011,-3.42021 0.19255,0 2.68925,4.45805 5.5482,9.90678 2.85895,5.44873 5.02387,9.89703 4.81091,9.88511 -0.21295,-0.0113 -1.08504,-0.48956 -1.93798,-1.06144 z m -15.85644,-29.90817 c -2.99678,-5.32512 -5.43936,-10.24272 -5.42795,-10.928 0.0118,-0.68529 2.69001,3.45405 5.95245,9.19852 3.26245,5.74447 5.70502,10.66207 5.42795,10.928 -0.27707,0.26592 -2.95569,-3.87341 -5.95245,-9.19852 z m -60.52315,6.26966 c -0.45685,-1.14266 -0.19607,-2.45398 0.57953,-2.91403 0.7756,-0.46007 1.41018,0.47483 1.41018,2.07755 0,3.41723 -0.82003,3.76197 -1.98971,0.83648 z m 51.55761,-22.6396 c -1.30981,-1.91859 -2.38146,-4.10212 -2.38146,-4.8523 0,-0.75017 -0.82945,-2.20554 -1.84322,-3.23411 -2.10472,-2.13548 -11.80376,-21.08718 -11.12522,-21.73842 0.24566,-0.23577 4.61771,7.16325 9.71569,16.44225 8.75102,15.92808 10.96972,21.19802 5.63421,13.38258 z M 207.97548,184.89915 c 9.73104,-18.14585 15.30638,-27.06832 13.02679,-20.84727 -0.55273,1.50841 -2.58434,5.59345 -4.51469,9.07789 -1.93036,3.48443 -6.23972,11.35626 -9.57636,17.49294 -3.33664,6.13668 -6.70078,11.53377 -7.47586,11.99353 -0.77507,0.45975 3.06798,-7.51293 8.54012,-17.71709 z m 148.18138,-16.54777 c -1.02589,-1.18639 -1.49268,-2.51467 -1.0373,-2.95171 0.45536,-0.43706 1.56861,0.53363 2.47386,2.15707 1.93148,3.46379 1.21446,3.86042 -1.43656,0.79464 z m -134.15134,-8.17379 c -0.009,-1.95653 4.60106,-9.77894 5.34368,-9.06619 0.38942,0.37374 -0.65236,2.82117 -2.31507,5.43873 -1.66271,2.61755 -3.02559,4.24991 -3.02861,3.62746 z m 126.74045,-5.35814 c -0.90526,-1.62343 -1.36818,-3.21828 -1.0287,-3.5441 0.33948,-0.32582 1.37435,1.00245 2.29972,2.95171 2.03207,4.28049 1.04266,4.74164 -1.27102,0.59239 z M 237.55435,131.29217 c 5.56807,-10.28232 10.32971,-18.49744 10.58145,-18.25583 0.98309,0.94352 -16.56987,33.39057 -19.36542,35.79744 -0.73689,0.63443 3.21591,-7.25931 8.78397,-17.54161 z m 106.38223,14.66679 c -1.24685,-1.82639 -3.31083,-5.48836 -4.5866,-8.13771 -1.27577,-2.64936 -3.63626,-6.88683 -5.24551,-9.4166 -1.60925,-2.52976 -2.62483,-4.59957 -2.25684,-4.59957 0.36798,0 -1.38558,-3.34354 -3.89683,-7.43009 -4.94115,-8.04069 -11.82162,-22.29025 -10.76298,-22.29025 0.35897,0 2.19839,3.025106 4.0876,6.72246 1.88921,3.69735 8.58441,16.1162 14.87822,27.59745 10.48834,19.13297 13.50367,25.93399 7.78294,17.55431 z m -92.42299,-40.5937 c 1.64287,-3.09073 3.20631,-5.619503 3.47433,-5.619503 1.3467,0 -2.99154,9.961093 -4.59554,10.551843 -1.18081,0.43489 -0.76919,-1.37592 1.12121,-4.93234 z m 11.03174,-19.479286 c 3.85297,-7.233695 7.29495,-12.874261 7.64885,-12.534597 0.71234,0.683681 -10.89513,22.024202 -13.20167,24.271499 -0.79891,0.77839 1.69986,-4.503226 5.55282,-11.736902 z m 50.86215,3.216236 c -1.49046,-2.672905 -2.3239,-3.114323 -3.33623,-1.76693 -0.98093,1.305572 -1.1406,1.164343 -0.5847,-0.517148 0.70442,-2.13077 -4.88633,-14.013779 -10.56411,-22.45373 -2.81833,-4.189417 -9.49484,-19.390477 -7.70711,-17.547557 0.6787,0.699673 5.37986,8.914506 10.44699,18.255184 5.06713,9.340678 10.52561,19.086359 12.12997,21.657069 1.60435,2.57071 2.62111,4.957989 2.25949,5.305066 -0.36163,0.347077 -1.55157,-0.972294 -2.6443,-2.931954 z M 275.85773,61.742665 c 2.92304,-5.723099 5.62255,-10.110084 5.99892,-9.748856 0.83176,0.798311 -5.67718,13.390306 -8.95495,17.323983 -1.29722,1.556779 0.033,-1.852027 2.95603,-7.575127 z m 8.8367,-15.822841 c 1.27189,-2.36062 2.92283,-3.930026 3.66874,-3.48757 0.74592,0.442458 -0.0656,2.373874 -1.8033,4.292038 -4.17752,4.611295 -4.6692,4.399266 -1.86544,-0.804468 z"
       style="fill:#6c8bd4;stroke-width:1.44461071" />
  </g>
</svg>
